<?xml version="1.0" encoding="utf-8"?>
<!-- Generator: Adobe Illustrator 12.0.0, SVG Export Plug-In . SVG Version: 6.00 Build 51448)  -->
<!DOCTYPE svg PUBLIC "-//W3C//DTD SVG 1.1//EN" "http://www.w3.org/Graphics/SVG/1.1/DTD/svg11.dtd" [
	<!ENTITY ns_svg "http://www.w3.org/2000/svg">
	<!ENTITY ns_xlink "http://www.w3.org/1999/xlink">
]>
<svg  version="1.1" id="レイヤー_1" xmlns="&ns_svg;" xmlns:xlink="&ns_xlink;" width="241.431" height="20.582"
	 viewBox="0 0 241.431 20.582" overflow="visible" enable-background="new 0 0 241.431 20.582" xml:space="preserve">

<path fill="#F7F9F9" d="M3.18,20.539l-0.29-1.525c0.759-0.078,1.815-0.222,3.169-0.43v-6.649c-1.654,1.704-3.398,3.13-5.231,4.275
	L0,15.05c1.812-1.188,3.505-2.632,5.081-4.329c1.575-1.697,2.764-3.315,3.566-4.855H1.074V4.501h9.088V0.999h1.729v3.502h9.152
	v1.364h-8.271c0.522,2.335,1.207,4.301,2.052,5.897c1.733-1.218,3.169-2.449,4.308-3.695l1.439,1.139
	c-1.562,1.354-3.227,2.625-4.995,3.813c1.733,2.643,3.781,4.688,6.145,6.134l-1.257,1.3c-2.249-1.396-4.258-3.45-6.026-6.16
	c-1.769-2.711-2.854-5.52-3.255-8.428h-0.634c-0.767,1.425-1.697,2.811-2.793,4.157v8.293c3.717-0.595,6.112-1.034,7.187-1.321
	l0.021,1.461C13.753,18.885,9.825,19.579,3.18,20.539z"/>
<path fill="#F7F9F9" d="M22.72,10.377l-0.677-1.01c1.697-0.78,3.223-1.88,4.576-3.298h-3.813V4.855h4.351V1.246h1.579v3.609h4.039
	v1.214H29.09c1.067,0.896,2.353,1.74,3.856,2.535l-0.87,1.031c-1.01-0.508-2.131-1.296-3.362-2.363v2.943h-1.525V7.369
	C25.863,8.637,24.374,9.64,22.72,10.377z M28.112,15.458c-0.416,1.081-1.09,2.075-2.025,2.981c-0.935,0.905-2.021,1.619-3.26,2.143
	l-0.72-1.096c1.174-0.544,2.197-1.287,3.067-2.229c0.87-0.942,1.419-1.91,1.649-2.906h-4.082v-1.311h4.329V11.14h1.665v1.901h3.921
	v1.311h-3.609c0.651,1.211,1.704,2.324,3.158,3.341l-1.117,1.117C29.691,17.793,28.699,16.676,28.112,15.458z M24.374,4.275
	l-0.87-2.159l1.3-0.376l0.902,2.105L24.374,4.275z M31.335,4.179l-1.171-0.247l0.924-2.245l1.3,0.269L31.335,4.179z M32.302,20.582
	l-0.72-1.117c1.683-0.651,3.083-1.461,4.2-2.428l1.053,1.085c-0.58,0.458-1.329,0.933-2.245,1.423
	C33.673,20.036,32.91,20.381,32.302,20.582z M33.913,16.683V4.984h2.686l0.58-2.02h-3.985V1.74h9.851v1.225h-4.146l-0.849,2.02
	h4.286v11.698H33.913z M35.535,8.422h5.178V6.155h-5.178V8.422z M35.535,11.881h5.178V9.55h-5.178V11.881z M40.713,12.998h-5.178
	v2.471h5.178V12.998z M42.797,20.496c-0.573-0.223-1.266-0.584-2.079-1.085s-1.449-0.948-1.907-1.343l0.913-1.096
	c1.117,0.932,2.442,1.701,3.975,2.31L42.797,20.496z"/>
<path fill="#F7F9F9" d="M52.927,11.397c0-0.544,0.193-1.01,0.58-1.396s0.852-0.58,1.396-0.58c0.544,0,1.01,0.193,1.396,0.58
	s0.58,0.853,0.58,1.396s-0.193,1.01-0.58,1.396s-0.853,0.58-1.396,0.58c-0.544,0-1.01-0.193-1.396-0.58
	S52.927,11.941,52.927,11.397z"/>
<path fill="#F7F9F9" d="M83.907,4.329c-0.265,3.259-0.915,5.927-1.95,8.003c-1.035,2.077-2.749,3.817-5.14,5.221
	c-2.392,1.404-5.346,2.284-8.862,2.643l-0.44-1.622c3.745-0.358,7.017-1.525,9.813-3.502s4.349-5.378,4.657-10.205H67.268v-1.59
	h15.608c-0.144-0.293-0.219-0.626-0.226-0.999c0-0.63,0.231-1.164,0.693-1.601C83.805,0.24,84.38,0.015,85.067,0
	c0.645,0,1.194,0.219,1.649,0.655c0.455,0.437,0.689,0.988,0.704,1.654c0,0.638-0.229,1.175-0.688,1.611
	c-0.458,0.437-1.014,0.663-1.665,0.677C84.638,4.598,84.251,4.508,83.907,4.329z M85.024,3.835c0.415,0,0.779-0.146,1.09-0.44
	c0.312-0.293,0.467-0.651,0.467-1.074c0-0.43-0.152-0.798-0.457-1.106c-0.304-0.308-0.671-0.462-1.101-0.462
	c-0.416,0-0.777,0.152-1.085,0.457c-0.308,0.304-0.462,0.665-0.462,1.08c0,0.416,0.152,0.777,0.457,1.085
	C84.238,3.681,84.602,3.835,85.024,3.835z"/>
<path fill="#F7F9F9" d="M107.658,8.186c-0.079,1.289-0.193,2.288-0.344,2.997s-0.535,1.699-1.155,2.97
	c-0.62,1.271-1.513,2.342-2.68,3.213c-1.167,0.869-2.621,1.547-4.361,2.029c-1.74,0.484-3.792,0.758-6.155,0.822l-0.312-1.558
	c4.075-0.093,7.174-0.868,9.297-2.325c2.124-1.458,3.375-3.669,3.754-6.634H90.105V8.186H107.658z M106.917,4.383H90.965V2.879
	h15.952V4.383z"/>
<path fill="#F7F9F9" d="M131.291,19.078l-1.525,1.182c-1.962-2.02-4.645-4.461-8.046-7.326c-3.56,3.424-7.101,5.837-10.624,7.24
	l-0.816-1.364c2.95-1.203,5.889-3.11,8.814-5.72c2.925-2.611,4.975-5.463,6.15-8.557h-12.257V3.04h14.19l0.44,0.397
	c-1.003,3.037-2.61,5.808-4.823,8.314C124.985,13.464,127.817,15.906,131.291,19.078z"/>
<path fill="#F7F9F9" d="M144.536,11.021c-0.015,1.439-0.15,2.586-0.408,3.438c-0.258,0.853-0.765,1.699-1.52,2.541
	c-0.756,0.841-1.692,1.534-2.81,2.078s-2.356,0.945-3.717,1.203l-0.655-1.429c0.988-0.179,1.953-0.473,2.895-0.881
	c0.942-0.408,1.785-0.976,2.53-1.702c0.745-0.728,1.237-1.467,1.478-2.219c0.239-0.752,0.359-1.762,0.359-3.029h-9.797V9.464h9.797
	V5.113c-1.905,0.222-4.43,0.394-7.573,0.516l-0.269-1.493c2.785-0.057,5.557-0.275,8.314-0.655c2.757-0.379,4.952-0.863,6.585-1.45
	l1.074,1.407c-1.325,0.501-3.42,0.974-6.284,1.418l-0.011,4.608h8.497v1.558H144.536z"/>
<path fill="#F7F9F9" d="M160.961,13.138l-1.687,0.548c-0.609-1.99-1.476-4.035-2.6-6.134l1.493-0.559
	c0.616,1.074,1.053,1.895,1.311,2.46C159.736,10.02,160.23,11.247,160.961,13.138z M172.251,6.628
	c-0.537,4.469-1.871,7.763-4.002,9.883c-2.13,2.12-5.064,3.438-8.803,3.953l-0.483-1.429c4.082-0.587,6.961-1.994,8.637-4.222
	s2.639-5.009,2.89-8.347L172.251,6.628z M166.182,12.106l-1.697,0.569c-0.494-1.747-1.36-3.795-2.6-6.145l1.504-0.591
	c0.81,1.497,1.313,2.505,1.515,3.024C165.104,9.483,165.53,10.531,166.182,12.106z"/>
<path fill="#F7F9F9" d="M186.882,1.912c-0.208,0.681-0.505,1.415-0.892,2.202h10.42l-0.086,1.493
	c-0.021,0.43-0.204,1.264-0.548,2.503c-0.223,0.795-0.496,1.594-0.822,2.396c-0.325,0.803-0.754,1.633-1.283,2.492
	c-0.53,0.859-1.169,1.669-1.918,2.428c-0.748,0.76-1.62,1.452-2.615,2.078c-0.996,0.627-2.146,1.184-3.453,1.671
	c-1.308,0.487-2.728,0.881-4.26,1.182l-0.634-1.547c4.132-0.802,7.278-2.28,9.437-4.437c2.16-2.155,3.515-5.052,4.066-8.69h-9.152
	c-0.846,1.39-1.893,2.705-3.143,3.948c-1.249,1.242-2.555,2.258-3.915,3.045l-1.01-1.192c1.897-1.203,3.552-2.737,4.963-4.603
	s2.366-3.607,2.868-5.226L186.882,1.912z"/>
<path fill="#F7F9F9" d="M216.52,19.024c-2.142,0.329-4.552,0.494-7.229,0.494h-1.268c-3.395,0-5.691-0.344-6.891-1.031
	c-1.2-0.688-1.8-1.672-1.8-2.954c0-1.561,0.733-2.982,2.202-4.265l1.171,0.87c-1.16,1.139-1.74,2.23-1.74,3.276
	c0,0.909,0.521,1.565,1.563,1.966c1.041,0.401,3.166,0.602,6.375,0.602c2.492,0,4.941-0.179,7.348-0.537L216.52,19.024z
	 M214.994,5.371c-1.912,0.745-3.749,1.629-5.511,2.653L208.71,6.95c0.723-0.387,1.815-0.952,3.276-1.697l-0.043-0.215
	c-2.492,0.043-6.234,0.161-11.226,0.354l-0.086-1.504c3.309-0.136,7.154-0.204,11.537-0.204c1.031,0,1.758,0.011,2.181,0.032
	L214.994,5.371z M216.67,3.889l-1.225,0.548c-0.516-1.153-1.038-2.155-1.568-3.008l1.171-0.526
	C215.671,1.869,216.212,2.865,216.67,3.889z M219.667,3.448l-1.235,0.505c-0.473-1.11-0.985-2.102-1.536-2.976l1.117-0.526
	C218.593,1.347,219.144,2.346,219.667,3.448z"/>
<path fill="#F7F9F9" d="M241.431,12.139l-0.526,1.59c-0.96-0.372-1.852-0.701-2.675-0.988c-0.365,1.733-0.963,3.194-1.794,4.383
	c-0.831,1.189-1.98,2.234-3.448,3.137l-0.988-1.117c2.549-1.726,4.096-4.039,4.641-6.939c-2.264-0.709-4.372-1.171-6.327-1.386
	c-2.005,5.356-4.239,8.035-6.703,8.035c-0.788,0-1.443-0.296-1.966-0.886c-0.523-0.592-0.784-1.306-0.784-2.144
	c0-0.917,0.263-1.874,0.79-2.874c0.525-0.998,1.361-1.865,2.508-2.6c1.146-0.733,2.445-1.104,3.899-1.111
	c0.329,0,0.669,0.007,1.021,0.021c0.537-1.647,0.895-3.283,1.074-4.909h-6.821V2.986h8.422l0.333,0.354
	c-0.272,2.22-0.698,4.243-1.278,6.069c1.884,0.223,3.899,0.652,6.048,1.289c0.043-0.522,0.064-1.808,0.064-3.856h1.676l0.011,1.869
	c0,0.995-0.04,1.826-0.118,2.492C239.146,11.404,240.127,11.717,241.431,12.139z M228.594,10.688
	c-0.329-0.015-0.595-0.021-0.795-0.021c-1.117,0-2.097,0.303-2.938,0.907c-0.841,0.605-1.457,1.331-1.848,2.176
	c-0.39,0.846-0.585,1.551-0.585,2.116c0,0.394,0.132,0.734,0.397,1.021c0.265,0.287,0.587,0.43,0.967,0.43
	c0.752,0,1.604-0.7,2.557-2.1C227.301,13.816,228.05,12.307,228.594,10.688z"/>
</svg>
