<?xml version="1.0" encoding="utf-8"?>
<!-- Generator: Adobe Illustrator 12.0.0, SVG Export Plug-In . SVG Version: 6.00 Build 51448)  -->
<!DOCTYPE svg PUBLIC "-//W3C//DTD SVG 1.1//EN" "http://www.w3.org/Graphics/SVG/1.1/DTD/svg11.dtd" [
	<!ENTITY ns_svg "http://www.w3.org/2000/svg">
	<!ENTITY ns_xlink "http://www.w3.org/1999/xlink">
]>
<svg  version="1.1" id="レイヤー_1" xmlns="&ns_svg;" xmlns:xlink="&ns_xlink;" width="595.279" height="841.891"
	 viewBox="0 0 595.279 841.891" overflow="visible" enable-background="new 0 0 595.279 841.891" xml:space="preserve">
<g>
	<path d="M254.594,421.907h-7.816c-0.359,2.119-0.539,3.522-0.539,4.212c0,1.932,1.756,2.896,5.267,2.896
		c4.298,0,6.446-1.111,6.446-3.335c0-1.64-0.431-3.234-1.291-4.784l1.426-0.482c1.063,1.849,1.595,3.672,1.595,5.469
		c0,3.115-2.725,4.672-8.176,4.672c-4.656,0-6.985-1.509-6.985-4.525c0-0.861,0.146-2.235,0.438-4.122h-4.515v-1.493h4.772
		c0.165-0.959,0.438-2.317,0.82-4.077h-5.447v-1.517h5.784c0.157-0.719,0.419-1.8,0.786-3.245l1.797,0.112l-0.741,3.133h10.152
		v1.517h-10.501c-0.314,1.407-0.591,2.767-0.831,4.077h7.559V421.907z"/>
	<path d="M279.548,417.976c-2.119,1.543-4.122,3.059-6.009,4.549c0.382-0.098,0.727-0.146,1.033-0.146
		c1.108,0,1.685,0.816,1.729,2.448c0,0.419,0.034,0.968,0.102,1.646s0.129,1.088,0.186,1.229c0.056,0.143,0.162,0.296,0.319,0.46
		c0.157,0.165,0.569,0.271,1.235,0.32c0.667,0.049,1.386,0.073,2.156,0.073c1.078,0,2.123-0.034,3.134-0.101l-0.022,1.617
		c-0.847,0.052-1.831,0.078-2.954,0.078c-1.646,0-2.79-0.063-3.431-0.191c-0.64-0.127-1.138-0.352-1.493-0.674
		c-0.356-0.321-0.579-0.746-0.669-1.274c-0.09-0.527-0.176-1.573-0.258-3.139c-0.03-0.479-0.128-0.833-0.292-1.062
		c-0.165-0.229-0.416-0.342-0.753-0.342c-0.703,0-1.381,0.254-2.032,0.764c-0.651,0.509-3.261,2.624-7.828,6.345l-1.201-1.202
		c1.595-1.213,3.949-3.088,7.063-5.626c0.802-0.696,1.98-1.628,3.538-2.796c1.654-1.251,2.837-2.176,3.549-2.774l-12.174,0.045
		v-1.472h14.173L279.548,417.976z M278.885,412.867l-0.258,1.561c-3.526-0.509-7.757-0.793-12.69-0.854v-1.471
		C270.766,412.103,275.082,412.357,278.885,412.867z"/>
	<path d="M299.067,428.814c2.808-0.674,4.212-2.119,4.212-4.336c0-1.369-0.518-2.429-1.551-3.178
		c-1.033-0.748-2.41-1.123-4.133-1.123c-1.183,0-2.338,0.15-3.464,0.449c-1.127,0.3-2.423,0.91-3.886,1.83
		c-1.464,0.922-2.484,1.625-3.061,2.111l-0.831-1.381c4.56-2.942,9.014-6.038,13.364-9.287l-11.365,0.045v-1.494h13.713l0.785,1.146
		l-7.917,5.48l0.09,0.135c0.913-0.276,1.823-0.415,2.729-0.415c2.148,0,3.913,0.494,5.295,1.482
		c1.381,0.988,2.072,2.354,2.072,4.099c0,2.044-0.847,3.604-2.539,4.678c-1.691,1.074-3.96,1.611-6.806,1.611
		c-3.908,0-5.862-1.074-5.862-3.224c0-0.846,0.404-1.557,1.213-2.133c0.809-0.577,1.696-0.865,2.662-0.865
		c1.354,0,2.516,0.378,3.481,1.135C298.236,426.336,298.834,427.414,299.067,428.814z M297.415,429.105
		c-0.434-2.148-1.602-3.223-3.504-3.223c-0.606,0-1.15,0.15-1.634,0.449c-0.482,0.3-0.725,0.696-0.725,1.19
		c0,1.146,1.325,1.718,3.976,1.718C296.106,429.24,296.735,429.195,297.415,429.105z"/>
	<path d="M326.974,429.398c-2.238,0.344-4.758,0.516-7.558,0.516h-1.325c-3.549,0-5.95-0.359-7.204-1.078
		c-1.255-0.719-1.882-1.748-1.882-3.088c0-1.632,0.768-3.118,2.303-4.459l1.225,0.91c-1.213,1.19-1.82,2.332-1.82,3.426
		c0,0.95,0.545,1.636,1.635,2.055c1.089,0.42,3.311,0.629,6.665,0.629c2.605,0,5.166-0.188,7.682-0.562L326.974,429.398z
		 M325.38,415.124c-2,0.778-3.92,1.703-5.762,2.774l-0.809-1.123c0.756-0.404,1.898-0.996,3.426-1.775l-0.045-0.225
		c-2.605,0.045-6.518,0.169-11.736,0.371l-0.09-1.572c3.459-0.143,7.479-0.213,12.062-0.213c1.078,0,1.838,0.011,2.28,0.033
		L325.38,415.124z M327.132,413.574l-1.281,0.572c-0.539-1.205-1.085-2.253-1.639-3.145l1.224-0.55
		C326.087,411.463,326.653,412.504,327.132,413.574z M330.265,413.113l-1.291,0.528c-0.494-1.16-1.03-2.197-1.606-3.11l1.168-0.551
		C329.142,410.916,329.718,411.961,330.265,413.113z"/>
	<path d="M353.018,422.199l-0.55,1.662c-1.004-0.389-1.936-0.733-2.797-1.033c-0.382,1.813-1.007,3.34-1.875,4.582
		c-0.869,1.243-2.07,2.336-3.605,3.279l-1.033-1.168c2.665-1.805,4.282-4.223,4.852-7.255c-2.366-0.741-4.57-1.224-6.615-1.448
		c-2.096,5.6-4.432,8.4-7.008,8.4c-0.823,0-1.508-0.31-2.055-0.927c-0.547-0.618-0.82-1.364-0.82-2.241
		c0-0.958,0.275-1.959,0.826-3.004c0.55-1.044,1.424-1.95,2.622-2.718c1.198-0.767,2.557-1.154,4.077-1.162
		c0.344,0,0.699,0.008,1.066,0.022c0.562-1.722,0.936-3.433,1.123-5.133h-7.131v-1.426h8.805l0.348,0.371
		c-0.285,2.32-0.73,4.436-1.336,6.345c1.969,0.232,4.076,0.682,6.322,1.348c0.045-0.546,0.067-1.891,0.067-4.032h1.752l0.011,1.955
		c0,1.04-0.041,1.908-0.123,2.605C350.629,421.431,351.656,421.758,353.018,422.199z M339.597,420.683
		c-0.344-0.016-0.621-0.023-0.83-0.023c-1.168,0-2.192,0.316-3.072,0.949s-1.523,1.391-1.932,2.274s-0.611,1.621-0.611,2.212
		c0,0.412,0.138,0.768,0.415,1.067c0.276,0.3,0.614,0.449,1.011,0.449c0.786,0,1.677-0.731,2.673-2.195
		C338.245,423.953,339.029,422.375,339.597,420.683z"/>
</g>
</svg>
