<svg xmlns="http://www.w3.org/2000/svg" xmlns:xlink="http://www.w3.org/1999/xlink" version="1.1">


<symbol id="moeru" viewBox="0 0 241 32.297">
	<g>
		<path d="M178.63,13.36l-0.55,1.67c-1.01-0.391-1.94-0.74-2.8-1.04c-0.38,1.819-1.011,3.34-1.87,4.59
			c-0.87,1.24-2.07,2.33-3.61,3.27l-1.03-1.159c2.66-1.811,4.28-4.23,4.851-7.261c-2.37-0.739-4.57-1.22-6.62-1.45
			c-2.09,5.6-4.43,8.4-7,8.4c-0.83,0-1.51-0.31-2.06-0.92c-0.551-0.62-0.82-1.37-0.82-2.24c0-0.96,0.28-1.96,0.83-3.01
			c0.55-1.04,1.42-1.95,2.62-2.72c1.199-0.76,2.56-1.15,4.08-1.16c0.34,0,0.699,0.01,1.06,0.02c0.56-1.72,0.94-3.43,1.13-5.13
			h-7.13V3.8h8.8l0.351,0.37c-0.29,2.32-0.73,4.43-1.341,6.34c1.971,0.23,4.08,0.68,6.32,1.35c0.05-0.55,0.07-1.89,0.07-4.03h1.75
			l0.01,1.95c0,1.04-0.04,1.91-0.12,2.61C176.241,12.6,177.27,12.92,178.63,13.36z M165.21,11.85c-0.35-0.02-0.62-0.02-0.83-0.02
			c-1.17,0-2.2,0.31-3.08,0.939c-0.88,0.641-1.52,1.4-1.93,2.28s-0.61,1.62-0.61,2.21c0,0.41,0.141,0.771,0.42,1.07
			c0.271,0.3,0.61,0.45,1.011,0.45c0.779,0,1.67-0.73,2.67-2.2C163.861,15.12,164.64,13.54,165.21,11.85z"/>
		<path d="M155.871,4.28l-1.29,0.53c-0.49-1.16-1.03-2.2-1.6-3.11l1.17-0.55
			C154.75,2.08,155.331,3.13,155.871,4.28z"/>
		<path d="M152.741,4.74l-1.28,0.57c-0.54-1.2-1.08-2.25-1.64-3.14l1.229-0.55
			C151.701,2.63,152.26,3.67,152.741,4.74z"/>
		<path d="M152.3,18.91l0.28,1.649c-2.23,0.351-4.75,0.521-7.55,0.521h-1.33c-3.55,0-5.95-0.36-7.2-1.08
			c-1.26-0.72-1.88-1.75-1.88-3.09c0-1.63,0.76-3.12,2.3-4.46l1.22,0.91c-1.21,1.189-1.819,2.34-1.819,3.43
			c0,0.95,0.55,1.64,1.64,2.05c1.09,0.42,3.31,0.63,6.66,0.63C147.231,19.47,149.791,19.29,152.3,18.91z"/>
		<path d="M150.321,4.56l0.67,1.73c-2,0.78-3.92,1.7-5.76,2.77l-0.811-1.12c0.76-0.4,1.9-1,3.43-1.77l-0.05-0.23
			c-2.6,0.05-6.52,0.17-11.74,0.37l-0.09-1.57c3.46-0.14,7.48-0.21,12.07-0.21C149.111,4.53,149.871,4.54,150.321,4.56z"/>
		<path d="M128.661,11.44c1.38,0.99,2.07,2.36,2.07,4.1c0,2.05-0.851,3.61-2.54,4.68
			c-1.69,1.07-3.96,1.61-6.8,1.61c-3.91,0-5.87-1.07-5.87-3.22c0-0.851,0.41-1.561,1.22-2.13c0.8-0.58,1.69-0.87,2.66-0.87
			c1.35,0,2.51,0.38,3.48,1.14c0.97,0.75,1.561,1.83,1.8,3.23c2.801-0.671,4.21-2.12,4.21-4.341c0-1.37-0.52-2.43-1.55-3.17
			c-1.04-0.75-2.41-1.13-4.13-1.13c-1.19,0-2.34,0.15-3.47,0.45c-1.13,0.3-2.42,0.91-3.88,1.83c-1.47,0.92-2.49,1.63-3.07,2.11
			l-0.83-1.381c4.56-2.939,9.02-6.04,13.37-9.28l-11.37,0.04V3.62h13.72l0.78,1.14l-7.92,5.48l0.09,0.14
			c0.92-0.28,1.83-0.42,2.73-0.42C125.51,9.96,127.281,10.46,128.661,11.44z M123.031,20.27c-0.44-2.149-1.61-3.22-3.51-3.22
			c-0.6,0-1.15,0.15-1.63,0.45s-0.73,0.69-0.73,1.19c0,1.14,1.33,1.72,3.98,1.72C121.721,20.41,122.34,20.36,123.031,20.27z"/>
		<path d="M109.041,19.62l-0.02,1.62c-0.85,0.05-1.83,0.08-2.95,0.08c-1.65,0-2.79-0.07-3.43-0.2
			c-0.64-0.12-1.14-0.351-1.5-0.67c-0.35-0.32-0.58-0.75-0.67-1.271c-0.09-0.529-0.17-1.58-0.25-3.14
			c-0.03-0.48-0.13-0.84-0.3-1.06c-0.16-0.23-0.41-0.351-0.75-0.351c-0.7,0-1.38,0.26-2.03,0.771c-0.65,0.51-3.26,2.619-7.83,6.34
			l-1.2-1.2c1.6-1.21,3.95-3.09,7.06-5.63c0.81-0.69,1.98-1.62,3.54-2.79c1.66-1.25,2.84-2.18,3.55-2.78L90.09,9.39V7.92h14.17
			l0.9,1.22c-2.12,1.54-4.12,3.06-6.01,4.55c0.38-0.101,0.73-0.15,1.03-0.15c1.11,0,1.69,0.82,1.73,2.45
			c0,0.42,0.04,0.97,0.1,1.649c0.07,0.681,0.13,1.091,0.19,1.23c0.05,0.14,0.16,0.29,0.32,0.46c0.16,0.16,0.57,0.27,1.23,0.32
			c0.67,0.05,1.39,0.069,2.16,0.069C106.991,19.72,108.03,19.69,109.041,19.62z"/>
		<path d="M104.5,4.03l-0.26,1.56c-3.53-0.51-7.76-0.79-12.69-0.85V3.27C96.38,3.27,100.69,3.52,104.5,4.03z"/>
		<path d="M83.701,11.58c1.06,1.85,1.59,3.67,1.59,5.47c0,3.11-2.72,4.67-8.17,4.67c-4.66,0-6.99-1.51-6.99-4.529
			c0-0.86,0.15-2.23,0.44-4.12h-4.52v-1.49h4.78c0.16-0.96,0.43-2.32,0.82-4.08h-5.45V5.99h5.78c0.16-0.72,0.42-1.8,0.79-3.25
			l1.8,0.11l-0.74,3.14h10.15V7.5h-10.5c-0.32,1.41-0.59,2.77-0.83,4.08h7.55v1.49h-7.81c-0.36,2.12-0.54,3.52-0.54,4.21
			c0,1.939,1.75,2.899,5.27,2.899c4.29,0,6.44-1.109,6.44-3.33c0-1.64-0.43-3.239-1.29-4.79L83.701,11.58z"/>
	</g>
	<g>
	<path d="M89.053,31.483c-0.215,0.094-0.409,0.182-0.584,0.264c-0.174,0.082-0.401,0.168-0.683,0.258
		c-0.238,0.074-0.497,0.137-0.777,0.189c-0.279,0.053-0.587,0.079-0.923,0.079c-0.634,0-1.209-0.089-1.728-0.267
		c-0.518-0.178-0.969-0.455-1.352-0.834c-0.375-0.371-0.669-0.844-0.88-1.416s-0.316-1.236-0.316-1.994
		c0-0.719,0.102-1.361,0.305-1.928s0.497-1.045,0.88-1.436c0.371-0.378,0.82-0.667,1.346-0.866c0.526-0.199,1.109-0.299,1.751-0.299
		c0.469,0,0.937,0.057,1.404,0.169c0.467,0.113,0.986,0.313,1.557,0.598v1.374h-0.088c-0.48-0.4-0.957-0.692-1.43-0.874
		c-0.474-0.184-0.979-0.274-1.519-0.274c-0.441,0-0.839,0.071-1.192,0.214c-0.354,0.143-0.67,0.364-0.947,0.664
		c-0.27,0.293-0.479,0.664-0.63,1.111s-0.226,0.963-0.226,1.549c0,0.613,0.083,1.141,0.249,1.582s0.38,0.801,0.642,1.078
		c0.273,0.289,0.593,0.502,0.959,0.641c0.365,0.139,0.751,0.208,1.157,0.208c0.559,0,1.082-0.096,1.571-0.287
		c0.488-0.191,0.945-0.479,1.371-0.861h0.082V31.483z"/>
	<path d="M96.174,28.847c0,1.066-0.273,1.908-0.819,2.525c-0.546,0.616-1.276,0.925-2.193,0.925
		c-0.925,0-1.658-0.309-2.202-0.925c-0.545-0.617-0.816-1.459-0.816-2.525s0.271-1.908,0.816-2.527
		c0.544-0.619,1.277-0.929,2.202-0.929c0.917,0,1.647,0.31,2.193,0.929S96.174,27.78,96.174,28.847z M95.034,28.847
		c0-0.846-0.165-1.475-0.496-1.887c-0.33-0.41-0.789-0.616-1.376-0.616c-0.595,0-1.057,0.206-1.385,0.616
		c-0.329,0.412-0.493,1.041-0.493,1.887c0,0.818,0.165,1.439,0.496,1.863c0.33,0.422,0.791,0.634,1.382,0.634
		c0.583,0,1.041-0.21,1.373-0.628C94.868,30.296,95.034,29.673,95.034,28.847z"/>
	<path d="M107.442,32.117h-1.102V28.39c0-0.281-0.013-0.553-0.038-0.814s-0.079-0.471-0.161-0.628
		c-0.09-0.168-0.219-0.295-0.387-0.381s-0.411-0.129-0.728-0.129c-0.309,0-0.617,0.077-0.927,0.231
		c-0.309,0.154-0.617,0.352-0.926,0.59c0.012,0.09,0.021,0.193,0.029,0.313s0.012,0.238,0.012,0.355v4.19h-1.102V28.39
		c0-0.289-0.013-0.564-0.038-0.824s-0.079-0.467-0.161-0.624c-0.09-0.168-0.219-0.294-0.387-0.378s-0.411-0.126-0.728-0.126
		c-0.301,0-0.603,0.074-0.905,0.223c-0.304,0.148-0.605,0.339-0.906,0.569v4.888h-1.102V25.57h1.102v0.728
		c0.344-0.285,0.687-0.508,1.029-0.668c0.342-0.159,0.706-0.239,1.093-0.239c0.445,0,0.823,0.094,1.134,0.28
		c0.312,0.188,0.543,0.447,0.695,0.779c0.445-0.375,0.852-0.645,1.219-0.811c0.368-0.166,0.761-0.249,1.179-0.249
		c0.719,0,1.249,0.218,1.592,0.653c0.342,0.436,0.513,1.044,0.513,1.825V32.117z"/>
	<path d="M115.317,28.794c0,0.547-0.077,1.039-0.231,1.477s-0.362,0.805-0.624,1.102
		c-0.277,0.309-0.582,0.539-0.913,0.693c-0.332,0.154-0.697,0.231-1.096,0.231c-0.371,0-0.694-0.044-0.972-0.132
		s-0.551-0.206-0.82-0.354l-0.07,0.307h-1.031V23h1.102v3.257c0.309-0.253,0.637-0.461,0.984-0.623
		c0.347-0.162,0.737-0.243,1.171-0.243c0.773,0,1.384,0.297,1.83,0.89C115.093,26.874,115.317,27.712,115.317,28.794z
		 M114.176,28.821c0-0.781-0.129-1.373-0.386-1.777c-0.258-0.404-0.673-0.606-1.246-0.606c-0.32,0-0.644,0.069-0.972,0.208
		c-0.327,0.139-0.631,0.317-0.912,0.535v3.749c0.313,0.141,0.58,0.238,0.805,0.293c0.224,0.055,0.479,0.082,0.763,0.082
		c0.608,0,1.085-0.2,1.431-0.601C114.003,30.304,114.176,29.677,114.176,28.821z"/>
	<path d="M122.458,32.117h-1.102v-0.729c-0.371,0.293-0.726,0.518-1.065,0.674s-0.714,0.234-1.124,0.234
		c-0.687,0-1.222-0.21-1.604-0.63c-0.383-0.42-0.574-1.036-0.574-1.849V25.57h1.102v3.728c0,0.332,0.016,0.617,0.047,0.854
		s0.098,0.438,0.199,0.606c0.105,0.172,0.241,0.297,0.409,0.375s0.412,0.117,0.731,0.117c0.285,0,0.596-0.074,0.934-0.223
		s0.652-0.338,0.945-0.569V25.57h1.102V32.117z"/>
	<path d="M129.301,30.229c0,0.598-0.247,1.088-0.74,1.471c-0.494,0.382-1.168,0.573-2.022,0.573
		c-0.483,0-0.928-0.058-1.331-0.173c-0.404-0.115-0.742-0.242-1.016-0.379v-1.237h0.059c0.347,0.263,0.733,0.472,1.158,0.627
		c0.426,0.155,0.833,0.232,1.223,0.232c0.484,0,0.862-0.078,1.136-0.235c0.272-0.156,0.409-0.402,0.409-0.738
		c0-0.258-0.074-0.453-0.223-0.586c-0.147-0.133-0.433-0.246-0.854-0.34c-0.156-0.035-0.359-0.076-0.611-0.123
		c-0.251-0.047-0.48-0.098-0.687-0.152c-0.573-0.152-0.979-0.376-1.22-0.671c-0.239-0.295-0.359-0.657-0.359-1.087
		c0-0.27,0.056-0.523,0.167-0.762c0.11-0.238,0.279-0.45,0.506-0.638c0.218-0.184,0.496-0.329,0.833-0.437
		c0.338-0.107,0.715-0.161,1.133-0.161c0.39,0,0.784,0.048,1.185,0.144c0.399,0.096,0.731,0.213,0.997,0.35v1.179h-0.059
		c-0.28-0.208-0.622-0.384-1.023-0.526c-0.401-0.145-0.795-0.216-1.181-0.216c-0.401,0-0.741,0.077-1.018,0.231
		s-0.415,0.385-0.415,0.689c0,0.27,0.084,0.473,0.252,0.609c0.163,0.137,0.429,0.248,0.795,0.334
		c0.202,0.047,0.43,0.094,0.682,0.141c0.251,0.047,0.461,0.09,0.628,0.129c0.511,0.117,0.904,0.318,1.182,0.604
		C129.163,29.37,129.301,29.753,129.301,30.229z"/>
	<path d="M134.272,32.063c-0.207,0.055-0.432,0.1-0.675,0.135c-0.244,0.034-0.461,0.052-0.652,0.052
		c-0.666,0-1.173-0.18-1.52-0.539c-0.347-0.36-0.521-0.937-0.521-1.729V26.5h-0.742v-0.93h0.742v-1.883h1.102v1.883h2.266v0.93
		h-2.266v2.987c0,0.344,0.008,0.613,0.023,0.807s0.07,0.375,0.163,0.543c0.086,0.156,0.204,0.271,0.354,0.344
		s0.379,0.108,0.687,0.108c0.179,0,0.365-0.026,0.561-0.079c0.194-0.053,0.334-0.097,0.42-0.132h0.059V32.063z"/>
	<path d="M136.79,24.477h-1.242v-1.141h1.242V24.477z M136.719,32.117h-1.102V25.57h1.102V32.117z"/>
	<path d="M144.661,28.794c0,0.547-0.077,1.039-0.231,1.477s-0.362,0.805-0.624,1.102
		c-0.277,0.309-0.582,0.539-0.913,0.693c-0.332,0.154-0.697,0.231-1.096,0.231c-0.371,0-0.694-0.044-0.972-0.132
		s-0.551-0.206-0.82-0.354l-0.07,0.307h-1.031V23h1.102v3.257c0.309-0.253,0.637-0.461,0.984-0.623
		c0.347-0.162,0.737-0.243,1.171-0.243c0.773,0,1.384,0.297,1.83,0.89C144.437,26.874,144.661,27.712,144.661,28.794z
		 M143.52,28.821c0-0.781-0.129-1.373-0.386-1.777c-0.258-0.404-0.673-0.606-1.246-0.606c-0.32,0-0.644,0.069-0.972,0.208
		c-0.327,0.139-0.631,0.317-0.912,0.535v3.749c0.313,0.141,0.58,0.238,0.805,0.293c0.224,0.055,0.479,0.082,0.763,0.082
		c0.608,0,1.085-0.2,1.431-0.601C143.347,30.304,143.52,29.677,143.52,28.821z"/>
	<path d="M147.489,32.117h-1.102V23h1.102V32.117z"/>
	<path d="M155.149,28.961h-4.82c0,0.401,0.061,0.751,0.182,1.05c0.121,0.297,0.287,0.542,0.498,0.732
		c0.203,0.188,0.444,0.328,0.725,0.422c0.279,0.093,0.587,0.14,0.923,0.14c0.445,0,0.894-0.089,1.345-0.267
		c0.452-0.176,0.773-0.352,0.965-0.522h0.059v1.2c-0.371,0.156-0.75,0.287-1.137,0.393c-0.387,0.104-0.793,0.157-1.219,0.157
		c-1.086,0-1.934-0.294-2.543-0.882c-0.609-0.587-0.914-1.422-0.914-2.503c0-1.069,0.292-1.919,0.875-2.548
		c0.584-0.628,1.352-0.942,2.305-0.942c0.882,0,1.563,0.259,2.041,0.774c0.478,0.516,0.717,1.248,0.717,2.197V28.961z
		 M154.079,28.117c-0.004-0.579-0.149-1.027-0.437-1.345c-0.287-0.316-0.724-0.476-1.31-0.476c-0.59,0-1.06,0.175-1.409,0.522
		c-0.35,0.349-0.548,0.781-0.595,1.298H154.079z"/>
	<path d="M161.493,30.229c0,0.598-0.247,1.088-0.74,1.471c-0.494,0.382-1.168,0.573-2.022,0.573
		c-0.483,0-0.928-0.058-1.331-0.173c-0.404-0.115-0.742-0.242-1.016-0.379v-1.237h0.059c0.347,0.263,0.733,0.472,1.158,0.627
		c0.426,0.155,0.833,0.232,1.223,0.232c0.484,0,0.862-0.078,1.136-0.235c0.272-0.156,0.409-0.402,0.409-0.738
		c0-0.258-0.074-0.453-0.223-0.586c-0.147-0.133-0.433-0.246-0.854-0.34c-0.156-0.035-0.359-0.076-0.611-0.123
		c-0.251-0.047-0.48-0.098-0.687-0.152c-0.573-0.152-0.979-0.376-1.22-0.671c-0.239-0.295-0.359-0.657-0.359-1.087
		c0-0.27,0.056-0.523,0.167-0.762c0.11-0.238,0.279-0.45,0.506-0.638c0.218-0.184,0.496-0.329,0.833-0.437
		c0.338-0.107,0.715-0.161,1.133-0.161c0.39,0,0.784,0.048,1.185,0.144c0.399,0.096,0.731,0.213,0.997,0.35v1.179h-0.059
		c-0.28-0.208-0.622-0.384-1.023-0.526c-0.401-0.145-0.795-0.216-1.181-0.216c-0.401,0-0.741,0.077-1.018,0.231
		s-0.415,0.385-0.415,0.689c0,0.27,0.084,0.473,0.252,0.609c0.163,0.137,0.429,0.248,0.795,0.334
		c0.202,0.047,0.43,0.094,0.682,0.141c0.251,0.047,0.461,0.09,0.628,0.129c0.511,0.117,0.904,0.318,1.182,0.604
		C161.354,29.37,161.493,29.753,161.493,30.229z"/>
</g>

</symbol>


<symbol id="moenai" viewBox="0 0 241 33.042">
	<g>
		<path d="M69.114,13.544h-7.816c-0.359,2.119-0.539,3.522-0.539,4.212c0,1.932,1.756,2.896,5.267,2.896
			c4.297,0,6.446-1.111,6.446-3.335c0-1.64-0.431-3.234-1.292-4.784l1.426-0.482c1.063,1.849,1.595,3.672,1.595,5.469
			c0,3.115-2.725,4.672-8.176,4.672c-4.657,0-6.985-1.509-6.985-4.525c0-0.861,0.146-2.235,0.438-4.122h-4.515v-1.493h4.773
			c0.165-0.959,0.438-2.317,0.82-4.077h-5.447V6.458h5.784c0.157-0.719,0.419-1.8,0.786-3.246l1.797,0.112l-0.741,3.133h10.152
			v1.516h-10.5c-0.314,1.408-0.591,2.767-0.831,4.077h7.558V13.544z"/>
		<path d="M94.068,9.613c-2.119,1.542-4.122,3.059-6.008,4.549c0.382-0.098,0.726-0.146,1.033-0.146
			c1.108,0,1.685,0.816,1.729,2.448c0,0.419,0.034,0.968,0.101,1.646s0.129,1.088,0.186,1.229c0.056,0.143,0.163,0.296,0.32,0.46
			c0.157,0.165,0.569,0.271,1.235,0.32s1.385,0.073,2.156,0.073c1.078,0,2.123-0.034,3.133-0.101l-0.022,1.617
			c-0.846,0.052-1.831,0.078-2.954,0.078c-1.647,0-2.791-0.063-3.431-0.191c-0.64-0.127-1.138-0.352-1.493-0.674
			c-0.356-0.321-0.579-0.746-0.668-1.274c-0.09-0.527-0.176-1.573-0.258-3.139c-0.03-0.479-0.127-0.833-0.292-1.062
			c-0.165-0.229-0.416-0.342-0.752-0.342c-0.704,0-1.381,0.254-2.033,0.764c-0.651,0.509-3.261,2.624-7.828,6.345l-1.202-1.202
			c1.595-1.213,3.949-3.088,7.064-5.626c0.801-0.696,1.98-1.628,3.538-2.796c1.654-1.251,2.837-2.175,3.549-2.774L78.997,9.86V8.389
			h14.173L94.068,9.613z M93.405,4.503l-0.258,1.561c-3.526-0.509-7.757-0.793-12.69-0.854V3.74
			C85.286,3.74,89.602,3.994,93.405,4.503z"/>
		<path d="M106.624,3.403c-0.053,1.175-0.146,2.272-0.281,3.291h4.998v1.494h-5.222
			c-0.771,4.493-2.358,8.311-4.762,11.456l-1.314-0.967c2.126-2.875,3.56-6.371,4.301-10.489h-3.672V6.693h3.908
			c0.149-1.093,0.239-2.197,0.27-3.313L106.624,3.403z M120.999,19.384l-0.898,1.427c-1.572-1.273-2.965-2.205-4.178-2.797v1.066
			c0,2.201-1.617,3.303-4.852,3.303c-1.333,0-2.469-0.285-3.408-0.854c-0.94-0.569-1.41-1.355-1.41-2.359
			c0-1.1,0.477-1.969,1.432-2.605c0.954-0.636,2.12-0.954,3.498-0.954c1.07,0,2.059,0.09,2.965,0.27V9.793h1.774v6.615
			C117.412,16.977,119.104,17.969,120.999,19.384z M114.193,17.362c-0.996-0.262-1.999-0.394-3.01-0.394
			c-0.876,0-1.644,0.182-2.302,0.545s-0.988,0.863-0.988,1.5c0,1.272,1.134,1.908,3.403,1.908c1.932,0,2.897-0.629,2.897-1.887
			V17.362z M121.043,9.658l-1.381,1.101c-1.385-1.752-3.302-3.553-5.75-5.402l1.011-1.112
			C117.027,5.473,119.067,7.277,121.043,9.658z"/>
		<path d="M133.33,15.341c-0.255,0.712-0.657,1.58-1.207,2.605c-0.551,1.026-1.112,1.881-1.685,2.566
			c-0.573,0.685-1.166,1.027-1.78,1.027c-0.374,0-0.708-0.09-0.999-0.27c-0.293-0.18-0.674-0.528-1.146-1.044
			c-0.471-0.518-0.903-1.227-1.297-2.129c-0.393-0.902-0.684-1.848-0.87-2.836c-0.188-0.988-0.28-1.949-0.28-2.886
			c0-0.838,0.086-2.025,0.258-3.56c0.18-1.61,0.277-2.785,0.292-3.526h1.887c-0.03,0.674-0.149,1.849-0.359,3.526
			c-0.188,1.498-0.28,2.68-0.28,3.549c0,1.303,0.136,2.473,0.409,3.509c0.273,1.037,0.67,1.931,1.19,2.679
			c0.521,0.749,0.9,1.123,1.141,1.123c0.389,0,0.913-0.533,1.572-1.601c0.658-1.066,1.25-2.218,1.773-3.453L133.33,15.341z
			 M143.606,18.643l-1.887,0.057v-0.203c0-2.216-0.359-4.372-1.078-6.469c-0.719-2.096-1.745-3.968-3.078-5.615l1.382-0.876
			C142,9.033,143.553,13.402,143.606,18.643z"/>
		<path d="M164.494,21.035c-2.238,0.344-4.758,0.516-7.558,0.516h-1.325c-3.549,0-5.95-0.359-7.204-1.078
			s-1.881-1.748-1.881-3.088c0-1.632,0.767-3.118,2.302-4.459l1.224,0.91c-1.213,1.19-1.818,2.332-1.818,3.426
			c0,0.95,0.544,1.636,1.634,2.055c1.089,0.42,3.311,0.629,6.665,0.629c2.605,0,5.166-0.188,7.682-0.562L164.494,21.035z
			 M162.9,6.761c-2,0.779-3.92,1.703-5.762,2.774l-0.809-1.123c0.756-0.404,1.898-0.996,3.426-1.774l-0.045-0.225
			c-2.605,0.045-6.519,0.168-11.736,0.371l-0.09-1.572c3.459-0.142,7.479-0.213,12.062-0.213c1.078,0,1.838,0.011,2.28,0.034
			L162.9,6.761z M164.652,5.211l-1.281,0.573c-0.539-1.206-1.085-2.253-1.639-3.145l1.224-0.55
			C163.607,3.1,164.172,4.141,164.652,5.211z M167.785,4.75l-1.291,0.528c-0.494-1.16-1.03-2.197-1.606-3.111l1.168-0.55
			C166.662,2.553,167.238,3.598,167.785,4.75z"/>
		<path d="M190.538,13.836l-0.55,1.662c-1.004-0.389-1.936-0.733-2.797-1.033c-0.382,1.813-1.007,3.34-1.875,4.582
			c-0.869,1.243-2.07,2.336-3.605,3.279l-1.033-1.168c2.665-1.805,4.282-4.223,4.852-7.255c-2.366-0.741-4.57-1.224-6.615-1.448
			c-2.096,5.6-4.432,8.4-7.008,8.4c-0.823,0-1.508-0.31-2.055-0.927c-0.547-0.618-0.82-1.364-0.82-2.241
			c0-0.958,0.275-1.959,0.826-3.004c0.55-1.044,1.424-1.95,2.622-2.718c1.198-0.767,2.557-1.154,4.077-1.162
			c0.344,0,0.699,0.008,1.066,0.022c0.562-1.722,0.936-3.433,1.123-5.132h-7.131V4.268h8.805l0.348,0.371
			c-0.285,2.321-0.73,4.436-1.336,6.345c1.969,0.232,4.076,0.682,6.322,1.348c0.045-0.546,0.067-1.891,0.067-4.032h1.752
			l0.011,1.954c0,1.041-0.041,1.909-0.123,2.606C188.149,13.068,189.175,13.395,190.538,13.836z M177.117,12.32
			c-0.344-0.016-0.621-0.023-0.83-0.023c-1.168,0-2.192,0.316-3.072,0.949s-1.523,1.391-1.932,2.274s-0.611,1.621-0.611,2.212
			c0,0.412,0.138,0.768,0.415,1.067c0.276,0.3,0.614,0.449,1.011,0.449c0.786,0,1.677-0.731,2.673-2.195
			C175.765,15.59,176.548,14.012,177.117,12.32z"/>
	</g>
	<g>
	<path d="M80.38,32.862h-3.445v-0.891h1.141v-6.945h-1.141v-0.891h3.445v0.891h-1.141v6.945h1.141V32.862z"/>
	<path d="M87.735,32.862h-1.102v-3.728c0-0.301-0.018-0.584-0.053-0.848s-0.1-0.469-0.193-0.618
		c-0.098-0.164-0.237-0.286-0.421-0.366s-0.422-0.12-0.714-0.12c-0.301,0-0.615,0.074-0.942,0.223
		c-0.328,0.148-0.642,0.339-0.942,0.569v4.888h-1.102v-6.547h1.102v0.729c0.344-0.285,0.698-0.508,1.065-0.668s0.743-0.24,1.13-0.24
		c0.706,0,1.245,0.213,1.616,0.639c0.37,0.426,0.556,1.039,0.556,1.84V32.862z"/>
	<path d="M94.696,32.453c-0.366,0.176-0.714,0.313-1.044,0.41c-0.329,0.099-0.679,0.147-1.049,0.147
		c-0.472,0-0.904-0.069-1.298-0.208s-0.731-0.349-1.012-0.63c-0.284-0.281-0.505-0.637-0.661-1.066
		c-0.155-0.43-0.233-0.932-0.233-1.506c0-1.07,0.293-1.91,0.88-2.52s1.361-0.914,2.324-0.914c0.374,0,0.741,0.053,1.102,0.157
		c0.36,0.105,0.691,0.234,0.991,0.387v1.222h-0.059c-0.335-0.259-0.681-0.458-1.037-0.597c-0.357-0.139-0.705-0.208-1.044-0.208
		c-0.623,0-1.115,0.21-1.476,0.628c-0.36,0.42-0.541,1.034-0.541,1.845c0,0.787,0.177,1.392,0.529,1.815
		c0.353,0.422,0.849,0.634,1.487,0.634c0.223,0,0.448-0.029,0.678-0.087c0.23-0.059,0.437-0.135,0.62-0.229
		c0.16-0.082,0.31-0.168,0.45-0.26s0.251-0.171,0.333-0.237h0.059V32.453z"/>
	<path d="M101.683,29.592c0,1.066-0.273,1.908-0.819,2.525c-0.546,0.616-1.277,0.925-2.193,0.925
		c-0.924,0-1.658-0.309-2.202-0.925c-0.544-0.617-0.816-1.459-0.816-2.525s0.272-1.908,0.816-2.527s1.278-0.929,2.202-0.929
		c0.916,0,1.647,0.31,2.193,0.929S101.683,28.525,101.683,29.592z M100.542,29.592c0-0.846-0.165-1.475-0.496-1.887
		c-0.33-0.41-0.789-0.616-1.376-0.616c-0.595,0-1.057,0.206-1.385,0.616c-0.329,0.412-0.493,1.041-0.493,1.887
		c0,0.818,0.165,1.439,0.496,1.863c0.33,0.422,0.791,0.634,1.382,0.634c0.583,0,1.041-0.21,1.373-0.628
		C100.376,31.041,100.542,30.418,100.542,29.592z"/>
	<path d="M112.95,32.862h-1.102v-3.728c0-0.281-0.013-0.553-0.038-0.814s-0.079-0.471-0.161-0.628
		c-0.09-0.168-0.219-0.295-0.387-0.381c-0.169-0.086-0.411-0.129-0.728-0.129c-0.309,0-0.617,0.077-0.926,0.231
		c-0.31,0.154-0.618,0.352-0.927,0.59c0.012,0.09,0.021,0.193,0.029,0.313s0.012,0.238,0.012,0.355v4.19h-1.102v-3.728
		c0-0.289-0.013-0.564-0.038-0.824s-0.079-0.467-0.161-0.624c-0.09-0.168-0.219-0.294-0.387-0.378
		c-0.169-0.084-0.411-0.126-0.728-0.126c-0.301,0-0.603,0.074-0.906,0.223c-0.303,0.148-0.604,0.339-0.905,0.569v4.888h-1.102
		v-6.547h1.102v0.728c0.344-0.285,0.687-0.508,1.028-0.668c0.343-0.159,0.707-0.239,1.094-0.239c0.445,0,0.823,0.094,1.135,0.28
		c0.311,0.188,0.542,0.447,0.694,0.779c0.445-0.375,0.852-0.645,1.22-0.811c0.367-0.166,0.76-0.249,1.178-0.249
		c0.719,0,1.25,0.218,1.592,0.653s0.513,1.044,0.513,1.825V32.862z"/>
	<path d="M120.825,29.539c0,0.547-0.077,1.039-0.231,1.477s-0.362,0.805-0.624,1.102
		c-0.277,0.309-0.581,0.539-0.913,0.693s-0.697,0.231-1.096,0.231c-0.371,0-0.695-0.044-0.972-0.132
		c-0.277-0.088-0.551-0.206-0.82-0.354l-0.07,0.307h-1.031v-9.117h1.102v3.257c0.309-0.253,0.637-0.461,0.983-0.623
		c0.348-0.162,0.738-0.243,1.172-0.243c0.773,0,1.383,0.297,1.83,0.89C120.602,27.619,120.825,28.457,120.825,29.539z
		 M119.685,29.566c0-0.781-0.129-1.373-0.386-1.777c-0.258-0.404-0.673-0.606-1.246-0.606c-0.32,0-0.644,0.069-0.972,0.208
		c-0.327,0.139-0.632,0.317-0.912,0.535v3.749c0.312,0.141,0.58,0.238,0.805,0.293c0.224,0.055,0.479,0.082,0.763,0.082
		c0.608,0,1.085-0.2,1.431-0.601C119.512,31.049,119.685,30.422,119.685,29.566z"/>
	<path d="M127.965,32.862h-1.102v-0.729c-0.371,0.293-0.725,0.518-1.064,0.674s-0.715,0.234-1.125,0.234
		c-0.686,0-1.221-0.21-1.604-0.63c-0.382-0.42-0.574-1.036-0.574-1.849v-4.248h1.101v3.728c0,0.332,0.016,0.617,0.047,0.854
		s0.098,0.438,0.199,0.606c0.105,0.172,0.242,0.297,0.41,0.375s0.412,0.117,0.73,0.117c0.285,0,0.598-0.074,0.934-0.223
		c0.338-0.148,0.652-0.338,0.945-0.569v-4.888h1.102V32.862z"/>
	<path d="M134.809,30.975c0,0.598-0.246,1.088-0.74,1.471c-0.494,0.382-1.168,0.573-2.021,0.573
		c-0.484,0-0.928-0.058-1.332-0.173s-0.742-0.242-1.016-0.379v-1.237h0.059c0.348,0.263,0.734,0.472,1.158,0.627
		c0.426,0.155,0.834,0.232,1.223,0.232c0.484,0,0.863-0.078,1.137-0.235c0.271-0.156,0.408-0.402,0.408-0.738
		c0-0.258-0.074-0.453-0.221-0.586c-0.148-0.133-0.434-0.246-0.855-0.34c-0.156-0.035-0.359-0.076-0.611-0.123
		c-0.25-0.047-0.48-0.098-0.686-0.152c-0.574-0.152-0.98-0.376-1.221-0.671c-0.238-0.295-0.359-0.657-0.359-1.087
		c0-0.27,0.057-0.523,0.168-0.762s0.279-0.45,0.506-0.638c0.219-0.184,0.496-0.329,0.834-0.437c0.336-0.107,0.713-0.161,1.131-0.161
		c0.391,0,0.785,0.048,1.186,0.144c0.398,0.096,0.73,0.213,0.996,0.35v1.179h-0.059c-0.279-0.208-0.621-0.384-1.023-0.526
		c-0.4-0.145-0.795-0.216-1.18-0.216c-0.402,0-0.74,0.077-1.018,0.231s-0.416,0.385-0.416,0.689c0,0.27,0.084,0.473,0.252,0.609
		c0.164,0.137,0.43,0.248,0.795,0.334c0.203,0.047,0.43,0.094,0.682,0.141s0.461,0.09,0.629,0.129
		c0.51,0.117,0.904,0.318,1.182,0.604C134.67,30.115,134.809,30.498,134.809,30.975z"/>
	<path d="M139.78,32.809c-0.205,0.055-0.432,0.1-0.674,0.135c-0.244,0.034-0.461,0.052-0.652,0.052
		c-0.666,0-1.174-0.18-1.52-0.539c-0.348-0.36-0.521-0.937-0.521-1.729v-3.481h-0.742v-0.93h0.742v-1.883h1.102v1.883h2.266v0.93
		h-2.266v2.987c0,0.344,0.008,0.613,0.023,0.807s0.07,0.375,0.164,0.543c0.086,0.156,0.203,0.271,0.354,0.344
		s0.379,0.108,0.686,0.108c0.18,0,0.365-0.026,0.561-0.079s0.336-0.097,0.42-0.132h0.059V32.809z"/>
	<path d="M142.297,25.222h-1.242v-1.141h1.242V25.222z M142.227,32.862h-1.102v-6.547h1.102V32.862z"/>
	<path d="M150.168,29.539c0,0.547-0.076,1.039-0.23,1.477s-0.363,0.805-0.625,1.102
		c-0.277,0.309-0.58,0.539-0.912,0.693s-0.697,0.231-1.096,0.231c-0.371,0-0.695-0.044-0.973-0.132s-0.551-0.206-0.82-0.354
		l-0.07,0.307h-1.031v-9.117h1.102v3.257c0.309-0.253,0.637-0.461,0.984-0.623s0.738-0.243,1.172-0.243
		c0.773,0,1.383,0.297,1.83,0.89C149.946,27.619,150.168,28.457,150.168,29.539z M149.028,29.566c0-0.781-0.129-1.373-0.385-1.777
		c-0.258-0.404-0.674-0.606-1.246-0.606c-0.32,0-0.645,0.069-0.973,0.208c-0.326,0.139-0.631,0.317-0.912,0.535v3.749
		c0.313,0.141,0.58,0.238,0.805,0.293s0.479,0.082,0.764,0.082c0.607,0,1.084-0.2,1.43-0.601S149.028,30.422,149.028,29.566z"/>
	<path d="M152.997,32.862h-1.102v-9.117h1.102V32.862z"/>
	<path d="M160.657,29.706h-4.82c0,0.401,0.061,0.751,0.182,1.05c0.121,0.297,0.287,0.542,0.498,0.732
		c0.203,0.188,0.445,0.328,0.725,0.422c0.279,0.093,0.588,0.14,0.924,0.14c0.445,0,0.893-0.089,1.346-0.267
		c0.451-0.176,0.771-0.352,0.963-0.522h0.059v1.2c-0.371,0.156-0.75,0.287-1.137,0.393c-0.387,0.104-0.793,0.157-1.219,0.157
		c-1.086,0-1.934-0.294-2.543-0.882c-0.609-0.587-0.914-1.422-0.914-2.503c0-1.069,0.293-1.919,0.875-2.548
		c0.584-0.628,1.354-0.942,2.305-0.942c0.883,0,1.563,0.259,2.041,0.774s0.717,1.248,0.717,2.197V29.706z M159.586,28.862
		c-0.004-0.579-0.148-1.027-0.436-1.345c-0.287-0.316-0.725-0.476-1.311-0.476c-0.59,0-1.059,0.175-1.408,0.522
		c-0.35,0.349-0.549,0.781-0.596,1.298H159.586z"/>
	<path d="M167,30.975c0,0.598-0.246,1.088-0.74,1.471c-0.494,0.382-1.168,0.573-2.021,0.573
		c-0.484,0-0.928-0.058-1.332-0.173s-0.742-0.242-1.016-0.379v-1.237h0.059c0.348,0.263,0.734,0.472,1.158,0.627
		c0.426,0.155,0.834,0.232,1.223,0.232c0.484,0,0.863-0.078,1.137-0.235c0.271-0.156,0.408-0.402,0.408-0.738
		c0-0.258-0.074-0.453-0.221-0.586c-0.148-0.133-0.434-0.246-0.855-0.34c-0.156-0.035-0.359-0.076-0.611-0.123
		c-0.25-0.047-0.48-0.098-0.686-0.152c-0.574-0.152-0.98-0.376-1.221-0.671c-0.238-0.295-0.359-0.657-0.359-1.087
		c0-0.27,0.057-0.523,0.168-0.762s0.279-0.45,0.506-0.638c0.219-0.184,0.496-0.329,0.834-0.437c0.336-0.107,0.713-0.161,1.131-0.161
		c0.391,0,0.785,0.048,1.186,0.144c0.398,0.096,0.73,0.213,0.996,0.35v1.179h-0.059c-0.279-0.208-0.621-0.384-1.023-0.526
		c-0.4-0.145-0.795-0.216-1.18-0.216c-0.402,0-0.74,0.077-1.018,0.231s-0.416,0.385-0.416,0.689c0,0.27,0.084,0.473,0.252,0.609
		c0.164,0.137,0.43,0.248,0.795,0.334c0.203,0.047,0.43,0.094,0.682,0.141s0.461,0.09,0.629,0.129
		c0.51,0.117,0.904,0.318,1.182,0.604C166.862,30.115,167,30.498,167,30.975z"/>
</g>
</symbol>


<symbol id="shigen" viewBox="0 0 241 34.276">
	<g>
		<path d="M164.8,12.69l-0.53,1.59c-0.96-0.37-1.85-0.7-2.67-0.99c-0.369,1.729-0.97,3.19-1.8,4.38
			c-0.83,1.19-1.979,2.24-3.439,3.14l-0.99-1.119c2.55-1.721,4.09-4.04,4.64-6.94c-2.27-0.71-4.37-1.17-6.33-1.38
			c-2,5.35-4.239,8.03-6.699,8.03c-0.79,0-1.45-0.29-1.971-0.881c-0.52-0.6-0.779-1.31-0.779-2.149c0-0.91,0.26-1.87,0.789-2.87
			c0.521-1,1.36-1.87,2.511-2.6c1.14-0.73,2.439-1.11,3.89-1.11c0.33,0,0.67,0,1.03,0.02c0.53-1.65,0.89-3.28,1.069-4.91h-6.819
			V3.54h8.42l0.33,0.35c-0.271,2.22-0.7,4.24-1.28,6.07c1.89,0.22,3.9,0.65,6.05,1.29c0.05-0.52,0.07-1.81,0.07-3.86h1.67
			l0.01,1.87c0,1-0.04,1.83-0.109,2.49C162.51,11.95,163.5,12.27,164.8,12.69z M151.96,11.24c-0.33-0.02-0.59-0.02-0.79-0.02
			c-1.12,0-2.1,0.3-2.939,0.9c-0.841,0.61-1.461,1.33-1.851,2.18c-0.39,0.84-0.58,1.55-0.58,2.12c0,0.39,0.13,0.73,0.391,1.021
			c0.27,0.279,0.59,0.43,0.97,0.43c0.75,0,1.6-0.7,2.56-2.101C150.67,14.37,151.42,12.86,151.96,11.24z"/>
		<path d="M143.041,4l-1.24,0.5c-0.47-1.11-0.99-2.1-1.54-2.97L141.38,1C141.96,1.9,142.51,2.89,143.041,4z"/>
		<path d="M140.041,4.44l-1.23,0.55c-0.51-1.16-1.029-2.16-1.56-3.01l1.17-0.53
			C139.041,2.42,139.581,3.41,140.041,4.44z"/>
		<path d="M139.621,17.99l0.27,1.58c-2.14,0.33-4.55,0.5-7.229,0.5h-1.271c-3.39,0-5.689-0.351-6.89-1.03
			c-1.2-0.69-1.8-1.68-1.8-2.96c0-1.561,0.729-2.98,2.2-4.26l1.17,0.871c-1.16,1.14-1.74,2.229-1.74,3.27
			c0,0.91,0.52,1.57,1.57,1.97c1.04,0.4,3.159,0.601,6.369,0.601C134.76,18.53,137.21,18.35,139.621,17.99z"/>
		<path d="M137.72,4.27l0.641,1.65c-1.91,0.75-3.75,1.63-5.511,2.65l-0.77-1.07c0.72-0.39,1.81-0.95,3.27-1.7
			l-0.04-0.21c-2.489,0.04-6.229,0.16-11.22,0.35L124,4.44c3.31-0.14,7.15-0.21,11.54-0.21C136.571,4.23,137.291,4.24,137.72,4.27
			z"/>
		<path d="M120.84,19.15l-1.14,1.08c-0.58-0.471-1.26-1.171-2.05-2.101c-0.79-0.92-1.37-1.71-1.74-2.36l1.3-0.699
			c0.33,0.55,0.88,1.26,1.66,2.13C119.65,18.07,120.3,18.72,120.84,19.15z"/>
		<path d="M120.121,2.35v1.23h-5.28l-0.92,2.16H119v7.99h-4.32v5.52c0,0.51-0.18,0.92-0.54,1.22
			c-0.35,0.3-0.77,0.46-1.27,0.46h-2.39l-0.19-1.46h1.82c0.23,0,0.43-0.069,0.61-0.2c0.18-0.14,0.27-0.31,0.27-0.51V13.73h-4.16
			V5.74h3.58l0.62-2.16h-5.94v5.5c0,2.5-0.28,4.8-0.84,6.91c-0.55,2.1-1.26,3.72-2.1,4.85l-1.1-0.8
			c1.63-2.79,2.44-6.33,2.44-10.64V2.35H120.121z M117.4,12.54v-2.33h-6.99v2.33H117.4z M117.4,9.06V6.93h-6.99v2.13H117.4z"/>
		<path d="M109.8,15.05l1.46,0.58c-0.39,0.7-1.03,1.53-1.9,2.5c-0.87,0.98-1.59,1.66-2.16,2.061l-0.99-0.9
			C107.661,18.05,108.851,16.63,109.8,15.05z"/>
		<path d="M104.42,4.89l-1.26,1.01c-0.75-1.03-1.57-2.05-2.45-3.05l1.24-0.93C103.01,3.11,103.84,4.09,104.42,4.89
			z"/>
		<path d="M102.581,12.35l1.39,0.62c-0.89,3.181-1.81,5.7-2.79,7.54l-1.4-0.93
			C100.61,18.22,101.541,15.81,102.581,12.35z"/>
		<path d="M103.25,9.92l-1.28,0.97c-1.06-1.42-1.86-2.45-2.4-3.07l1.24-0.87C101.871,8.16,102.69,9.15,103.25,9.92
			z"/>
		<path d="M98.46,8.24l-0.65,1.2c-2.2-0.41-3.88-0.91-5.03-1.48c-1.16-0.57-2.01-1.25-2.56-2.04
			c-0.54,0.89-1.52,1.63-2.94,2.21c-1.41,0.59-2.86,0.92-4.33,1l-0.29-1.09c2.05-0.23,3.64-0.71,4.8-1.45
			c1.15-0.75,1.72-1.67,1.72-2.75V3.75h-2.25c-0.85,0.87-1.57,1.46-2.16,1.79l-0.92-0.76c0.65-0.5,1.31-1.09,1.97-1.78
			c0.65-0.69,1.12-1.28,1.4-1.79l1.57,0.29c-0.33,0.47-0.61,0.85-0.85,1.14h9.11l0.35,0.55c-0.82,1.2-1.69,2.16-2.6,2.89
			l-1.08-0.56c0.42-0.4,0.91-0.99,1.48-1.77h-4.37c-0.02,0.22-0.05,0.42-0.08,0.58c0.2,0.72,0.88,1.44,2.05,2.16
			C93.971,7.21,95.86,7.8,98.46,8.24z"/>
		<path d="M98.25,19.95l-0.78,1.3c-3.11-0.61-5.39-1.26-6.82-1.96l0.98-1.05C93.561,19,95.771,19.57,98.25,19.95z"
			/>
		<path d="M96.351,9.67v8.37H80.44V9.67H96.351z M94.71,16.9v-1.48H82.03v1.48H94.71z M94.71,14.43v-1.39H82.03
			v1.39H94.71z M94.71,12.08v-1.36H82.03v1.36H94.71z"/>
		<path d="M84.521,18.24l1.1,1.01c-0.79,0.39-1.87,0.79-3.25,1.19c-1.37,0.399-2.54,0.67-3.5,0.81l-0.55-1.19
			c0.91-0.149,2.01-0.399,3.31-0.779C82.92,18.91,83.88,18.56,84.521,18.24z"/>
		<path d="M83.411,3.14L82.5,4.17c-0.64-0.39-1.62-0.85-2.92-1.39l0.88-0.96C81.28,2.09,82.26,2.53,83.411,3.14z"
			/>
		<path d="M82.3,5.19l1.11,0.64c-1.03,1.1-2.35,2.14-3.98,3.12l-0.97-0.94C79.871,7.2,81.15,6.26,82.3,5.19z"/>
	</g>
	<g>
		<path d="M79.227,31.862h-1.506l-2.92-3.469h-1.629v3.469h-1.164v-8.727h2.443c0.527,0,0.967,0.034,1.318,0.103
			s0.668,0.19,0.949,0.366c0.316,0.2,0.563,0.45,0.741,0.753s0.267,0.688,0.267,1.152c0,0.629-0.158,1.156-0.475,1.58
			c-0.315,0.424-0.751,0.743-1.305,0.958L79.227,31.862z M76.516,25.594c0-0.25-0.044-0.473-0.132-0.665s-0.233-0.356-0.437-0.489
			c-0.168-0.112-0.367-0.191-0.597-0.236c-0.23-0.045-0.502-0.067-0.814-0.067h-1.364v3.289h1.171c0.367,0,0.688-0.032,0.961-0.097
			c0.272-0.064,0.505-0.184,0.696-0.359c0.176-0.164,0.306-0.353,0.39-0.564C76.474,26.191,76.516,25.921,76.516,25.594z"/>
		<path d="M85.743,28.706h-4.82c0,0.401,0.061,0.751,0.182,1.05c0.121,0.297,0.287,0.542,0.498,0.732
			c0.203,0.188,0.444,0.328,0.725,0.422c0.279,0.093,0.587,0.14,0.923,0.14c0.445,0,0.894-0.089,1.345-0.267
			c0.452-0.176,0.773-0.352,0.965-0.522h0.059v1.2c-0.371,0.156-0.75,0.287-1.137,0.393c-0.387,0.104-0.793,0.157-1.219,0.157
			c-1.086,0-1.934-0.294-2.543-0.882c-0.609-0.587-0.914-1.422-0.914-2.503c0-1.069,0.292-1.919,0.875-2.548
			c0.584-0.628,1.352-0.942,2.305-0.942c0.882,0,1.563,0.259,2.041,0.774c0.478,0.516,0.717,1.248,0.717,2.197V28.706z
			 M84.672,27.862c-0.004-0.579-0.149-1.027-0.437-1.345c-0.287-0.316-0.724-0.476-1.31-0.476c-0.59,0-1.06,0.175-1.409,0.522
			c-0.35,0.349-0.548,0.781-0.595,1.298H84.672z"/>
		<path d="M92.25,31.453c-0.366,0.176-0.714,0.313-1.044,0.41c-0.329,0.099-0.679,0.147-1.049,0.147
			c-0.472,0-0.904-0.069-1.298-0.208c-0.395-0.139-0.731-0.349-1.012-0.63c-0.284-0.281-0.505-0.637-0.66-1.066
			c-0.156-0.43-0.234-0.932-0.234-1.506c0-1.07,0.293-1.91,0.88-2.52s1.361-0.914,2.324-0.914c0.374,0,0.741,0.053,1.102,0.157
			c0.36,0.105,0.691,0.234,0.991,0.387v1.222h-0.059c-0.335-0.259-0.681-0.458-1.037-0.597c-0.357-0.139-0.705-0.208-1.044-0.208
			c-0.623,0-1.115,0.21-1.476,0.628c-0.361,0.42-0.541,1.034-0.541,1.845c0,0.787,0.176,1.392,0.529,1.815
			c0.353,0.422,0.849,0.634,1.487,0.634c0.223,0,0.448-0.029,0.679-0.087c0.229-0.059,0.436-0.135,0.619-0.229
			c0.16-0.082,0.31-0.168,0.45-0.26c0.14-0.092,0.251-0.171,0.333-0.237h0.059V31.453z"/>
		<path d="M99.323,25.315l-3.818,8.961h-1.174l1.215-2.731l-2.605-6.229h1.194l2.009,4.852l2.024-4.852H99.323z"/>
		<path d="M105.604,31.453c-0.366,0.176-0.714,0.313-1.044,0.41c-0.329,0.099-0.679,0.147-1.049,0.147
			c-0.472,0-0.904-0.069-1.298-0.208c-0.395-0.139-0.731-0.349-1.012-0.63c-0.284-0.281-0.505-0.637-0.66-1.066
			c-0.156-0.43-0.234-0.932-0.234-1.506c0-1.07,0.293-1.91,0.88-2.52s1.361-0.914,2.324-0.914c0.374,0,0.741,0.053,1.102,0.157
			c0.36,0.105,0.691,0.234,0.991,0.387v1.222h-0.059c-0.335-0.259-0.681-0.458-1.037-0.597c-0.357-0.139-0.705-0.208-1.044-0.208
			c-0.623,0-1.115,0.21-1.476,0.628c-0.361,0.42-0.541,1.034-0.541,1.845c0,0.787,0.176,1.392,0.529,1.815
			c0.353,0.422,0.849,0.634,1.487,0.634c0.223,0,0.448-0.029,0.679-0.087c0.229-0.059,0.436-0.135,0.619-0.229
			c0.16-0.082,0.31-0.168,0.45-0.26c0.14-0.092,0.251-0.171,0.333-0.237h0.059V31.453z"/>
		<path d="M108.129,31.862h-1.102v-9.117h1.102V31.862z"/>
		<path d="M115.399,31.862h-1.102v-0.7c-0.098,0.066-0.229,0.16-0.396,0.279c-0.165,0.119-0.326,0.214-0.482,0.284
			c-0.184,0.09-0.395,0.165-0.633,0.226c-0.237,0.061-0.517,0.091-0.837,0.091c-0.589,0-1.089-0.195-1.499-0.587
			c-0.409-0.391-0.614-0.889-0.614-1.494c0-0.496,0.106-0.898,0.319-1.205c0.212-0.307,0.516-0.547,0.91-0.723
			c0.397-0.176,0.876-0.296,1.435-0.358c0.558-0.063,1.156-0.109,1.797-0.141v-0.169c0-0.248-0.044-0.455-0.132-0.617
			c-0.088-0.164-0.214-0.291-0.378-0.385c-0.156-0.09-0.344-0.15-0.563-0.182c-0.218-0.03-0.446-0.046-0.685-0.046
			c-0.289,0-0.611,0.038-0.967,0.112c-0.354,0.074-0.722,0.184-1.101,0.325h-0.059v-1.116c0.215-0.059,0.525-0.123,0.933-0.193
			c0.406-0.069,0.807-0.104,1.202-0.104c0.461,0,0.862,0.038,1.205,0.114c0.342,0.076,0.638,0.206,0.888,0.39
			c0.247,0.18,0.435,0.412,0.563,0.697s0.193,0.639,0.193,1.061V31.862z M114.297,30.25v-1.825c-0.335,0.02-0.729,0.049-1.184,0.088
			c-0.454,0.04-0.813,0.097-1.078,0.171c-0.316,0.09-0.571,0.229-0.767,0.419c-0.194,0.19-0.292,0.45-0.292,0.784
			c0,0.375,0.113,0.658,0.339,0.848c0.227,0.189,0.571,0.284,1.035,0.284c0.386,0,0.738-0.075,1.058-0.226
			S114.025,30.461,114.297,30.25z"/>
		<path d="M123.278,28.539c0,0.547-0.077,1.039-0.231,1.477s-0.362,0.805-0.624,1.102
			c-0.277,0.309-0.582,0.539-0.913,0.693c-0.332,0.154-0.697,0.231-1.096,0.231c-0.371,0-0.694-0.044-0.972-0.132
			s-0.551-0.206-0.82-0.354l-0.07,0.307h-1.031v-9.117h1.102v3.257c0.309-0.253,0.637-0.461,0.984-0.623
			c0.347-0.162,0.737-0.243,1.171-0.243c0.773,0,1.384,0.297,1.83,0.89C123.054,26.619,123.278,27.457,123.278,28.539z
			 M122.137,28.566c0-0.781-0.129-1.373-0.386-1.777c-0.258-0.404-0.673-0.606-1.246-0.606c-0.32,0-0.644,0.069-0.972,0.208
			c-0.327,0.139-0.631,0.317-0.912,0.535v3.749c0.313,0.141,0.58,0.238,0.805,0.293c0.224,0.055,0.479,0.082,0.763,0.082
			c0.608,0,1.085-0.2,1.431-0.601C121.964,30.049,122.137,29.422,122.137,28.566z"/>
		<path d="M126.106,31.862h-1.102v-9.117h1.102V31.862z"/>
		<path d="M133.766,28.706h-4.82c0,0.401,0.061,0.751,0.182,1.05c0.121,0.297,0.287,0.542,0.498,0.732
			c0.203,0.188,0.444,0.328,0.725,0.422c0.279,0.093,0.587,0.14,0.923,0.14c0.445,0,0.894-0.089,1.345-0.267
			c0.452-0.176,0.773-0.352,0.965-0.522h0.059v1.2c-0.371,0.156-0.75,0.287-1.137,0.393c-0.387,0.104-0.793,0.157-1.219,0.157
			c-1.086,0-1.934-0.294-2.543-0.882c-0.609-0.587-0.914-1.422-0.914-2.503c0-1.069,0.292-1.919,0.875-2.548
			c0.584-0.628,1.352-0.942,2.305-0.942c0.882,0,1.563,0.259,2.041,0.774c0.478,0.516,0.717,1.248,0.717,2.197V28.706z
			 M132.696,27.862c-0.004-0.579-0.149-1.027-0.437-1.345c-0.287-0.316-0.724-0.476-1.31-0.476c-0.59,0-1.06,0.175-1.409,0.522
			c-0.35,0.349-0.548,0.781-0.595,1.298H132.696z"/>
		<path d="M140.836,24.222h-1.242v-1.141h1.242V24.222z M140.766,31.862h-1.102v-6.547h1.102V31.862z"/>
		<path d="M146.34,31.809c-0.207,0.055-0.432,0.1-0.675,0.135c-0.244,0.034-0.461,0.052-0.652,0.052
			c-0.666,0-1.173-0.18-1.52-0.539c-0.347-0.36-0.521-0.937-0.521-1.729v-3.481h-0.742v-0.93h0.742v-1.883h1.102v1.883h2.266v0.93
			h-2.266v2.987c0,0.344,0.008,0.613,0.023,0.807s0.07,0.375,0.163,0.543c0.086,0.156,0.204,0.271,0.354,0.344
			s0.379,0.108,0.687,0.108c0.179,0,0.365-0.026,0.561-0.079c0.194-0.053,0.334-0.097,0.42-0.132h0.059V31.809z"/>
		<path d="M153.155,28.706h-4.82c0,0.401,0.061,0.751,0.182,1.05c0.121,0.297,0.287,0.542,0.498,0.732
			c0.203,0.188,0.444,0.328,0.725,0.422c0.279,0.093,0.587,0.14,0.923,0.14c0.445,0,0.894-0.089,1.345-0.267
			c0.452-0.176,0.773-0.352,0.965-0.522h0.059v1.2c-0.371,0.156-0.75,0.287-1.137,0.393c-0.387,0.104-0.793,0.157-1.219,0.157
			c-1.086,0-1.934-0.294-2.543-0.882c-0.609-0.587-0.914-1.422-0.914-2.503c0-1.069,0.292-1.919,0.875-2.548
			c0.584-0.628,1.352-0.942,2.305-0.942c0.882,0,1.563,0.259,2.041,0.774c0.478,0.516,0.717,1.248,0.717,2.197V28.706z
			 M152.084,27.862c-0.004-0.579-0.149-1.027-0.437-1.345c-0.287-0.316-0.724-0.476-1.31-0.476c-0.59,0-1.06,0.175-1.409,0.522
			c-0.35,0.349-0.548,0.781-0.595,1.298H152.084z"/>
		<path d="M164.381,31.862h-1.102v-3.728c0-0.281-0.013-0.553-0.038-0.814s-0.079-0.471-0.161-0.628
			c-0.09-0.168-0.219-0.295-0.387-0.381s-0.411-0.129-0.728-0.129c-0.309,0-0.617,0.077-0.927,0.231
			c-0.309,0.154-0.617,0.352-0.926,0.59c0.012,0.09,0.021,0.193,0.029,0.313s0.012,0.238,0.012,0.355v4.19h-1.102v-3.728
			c0-0.289-0.013-0.564-0.038-0.824s-0.079-0.467-0.161-0.624c-0.09-0.168-0.219-0.294-0.387-0.378s-0.411-0.126-0.728-0.126
			c-0.301,0-0.603,0.074-0.905,0.223c-0.304,0.148-0.605,0.339-0.906,0.569v4.888h-1.102v-6.547h1.102v0.728
			c0.344-0.285,0.687-0.508,1.029-0.668c0.342-0.159,0.706-0.239,1.093-0.239c0.445,0,0.823,0.094,1.134,0.28
			c0.312,0.188,0.543,0.447,0.695,0.779c0.445-0.375,0.852-0.645,1.219-0.811c0.368-0.166,0.761-0.249,1.179-0.249
			c0.719,0,1.249,0.218,1.592,0.653c0.342,0.436,0.513,1.044,0.513,1.825V31.862z"/>
		<path d="M171.17,29.975c0,0.598-0.247,1.088-0.74,1.471c-0.494,0.382-1.168,0.573-2.022,0.573
			c-0.483,0-0.928-0.058-1.331-0.173c-0.404-0.115-0.742-0.242-1.016-0.379v-1.237h0.059c0.347,0.263,0.733,0.472,1.158,0.627
			c0.426,0.155,0.833,0.232,1.223,0.232c0.484,0,0.862-0.078,1.136-0.235c0.272-0.156,0.409-0.402,0.409-0.738
			c0-0.258-0.074-0.453-0.223-0.586c-0.147-0.133-0.433-0.246-0.854-0.34c-0.156-0.035-0.359-0.076-0.611-0.123
			c-0.251-0.047-0.48-0.098-0.687-0.152c-0.573-0.152-0.979-0.376-1.22-0.671c-0.239-0.295-0.359-0.657-0.359-1.087
			c0-0.27,0.056-0.523,0.167-0.762c0.11-0.238,0.279-0.45,0.506-0.638c0.218-0.184,0.496-0.329,0.833-0.437
			c0.338-0.107,0.715-0.161,1.133-0.161c0.39,0,0.784,0.048,1.185,0.144c0.399,0.096,0.731,0.213,0.997,0.35v1.179h-0.059
			c-0.28-0.208-0.622-0.384-1.023-0.526c-0.401-0.145-0.795-0.216-1.181-0.216c-0.401,0-0.741,0.077-1.018,0.231
			s-0.415,0.385-0.415,0.689c0,0.27,0.084,0.473,0.252,0.609c0.163,0.137,0.429,0.248,0.795,0.334
			c0.202,0.047,0.43,0.094,0.682,0.141c0.251,0.047,0.461,0.09,0.628,0.129c0.511,0.117,0.904,0.318,1.182,0.604
			C171.032,29.115,171.17,29.498,171.17,29.975z"/>
	</g>
</symbol>


<symbol id="irui_plastic" viewBox="0 0 243.132 31.566">
	<g>
		<path d="M3.18,20.539l-0.29-1.525c0.759-0.078,1.815-0.222,3.169-0.43v-6.649c-1.654,1.704-3.398,3.13-5.231,4.275
			L0,15.05c1.812-1.188,3.505-2.632,5.081-4.329c1.575-1.697,2.764-3.315,3.566-4.855H1.074V4.501h9.088V0.999h1.729v3.502h9.152
			v1.364h-8.271c0.522,2.335,1.207,4.301,2.052,5.897c1.733-1.218,3.169-2.449,4.308-3.695l1.439,1.139
			c-1.562,1.354-3.227,2.625-4.995,3.813c1.733,2.643,3.781,4.688,6.145,6.134l-1.257,1.3c-2.249-1.396-4.258-3.45-6.026-6.16
			c-1.769-2.711-2.854-5.52-3.255-8.428h-0.634c-0.767,1.425-1.697,2.811-2.793,4.157v8.293c3.717-0.595,6.112-1.034,7.187-1.321
			l0.021,1.461C13.753,18.885,9.825,19.579,3.18,20.539z"/>
		<path d="M22.72,10.377l-0.677-1.01c1.697-0.78,3.223-1.88,4.576-3.298h-3.813V4.855h4.351V1.246h1.579v3.609h4.039
			v1.214H29.09c1.067,0.896,2.353,1.74,3.856,2.535l-0.87,1.031c-1.01-0.508-2.131-1.296-3.362-2.363v2.943h-1.525V7.369
			C25.863,8.637,24.374,9.64,22.72,10.377z M28.112,15.458c-0.416,1.081-1.09,2.075-2.025,2.981
			c-0.935,0.905-2.021,1.619-3.26,2.143l-0.72-1.096c1.174-0.544,2.197-1.287,3.067-2.229c0.87-0.942,1.419-1.91,1.649-2.906h-4.082
			v-1.311h4.329V11.14h1.665v1.901h3.921v1.311h-3.609c0.651,1.211,1.704,2.324,3.158,3.341l-1.117,1.117
			C29.691,17.793,28.699,16.676,28.112,15.458z M24.374,4.275l-0.87-2.159l1.3-0.376l0.902,2.105L24.374,4.275z M31.335,4.179
			l-1.171-0.247l0.924-2.245l1.3,0.269L31.335,4.179z M32.302,20.582l-0.72-1.117c1.683-0.651,3.083-1.461,4.2-2.428l1.053,1.085
			c-0.58,0.458-1.329,0.933-2.245,1.423C33.673,20.036,32.91,20.381,32.302,20.582z M33.913,16.683V4.984h2.686l0.58-2.02h-3.985
			V1.74h9.851v1.225h-4.146l-0.849,2.02h4.286v11.698H33.913z M35.535,8.422h5.178V6.155h-5.178V8.422z M35.535,11.881h5.178V9.55
			h-5.178V11.881z M40.713,12.998h-5.178v2.471h5.178V12.998z M42.797,20.496c-0.573-0.223-1.266-0.584-2.079-1.085
			s-1.449-0.948-1.907-1.343l0.913-1.096c1.117,0.932,2.442,1.701,3.975,2.31L42.797,20.496z"/>
		<path d="M52.927,11.397c0-0.544,0.193-1.01,0.58-1.396s0.852-0.58,1.396-0.58c0.544,0,1.01,0.193,1.396,0.58
			s0.58,0.853,0.58,1.396s-0.193,1.01-0.58,1.396s-0.853,0.58-1.396,0.58c-0.544,0-1.01-0.193-1.396-0.58
			S52.927,11.941,52.927,11.397z"/>
		<path d="M83.907,4.329c-0.265,3.259-0.915,5.927-1.95,8.003c-1.035,2.077-2.749,3.817-5.14,5.221
			c-2.392,1.404-5.346,2.284-8.862,2.643l-0.44-1.622c3.745-0.358,7.017-1.525,9.813-3.502s4.349-5.378,4.657-10.205H67.268v-1.59
			h15.608c-0.144-0.293-0.219-0.626-0.226-0.999c0-0.63,0.231-1.164,0.693-1.601C83.805,0.24,84.38,0.015,85.067,0
			c0.645,0,1.194,0.219,1.649,0.655c0.455,0.437,0.689,0.988,0.704,1.654c0,0.638-0.229,1.175-0.688,1.611
			c-0.458,0.437-1.014,0.663-1.665,0.677C84.638,4.598,84.251,4.508,83.907,4.329z M85.024,3.835c0.415,0,0.779-0.146,1.09-0.44
			c0.312-0.293,0.467-0.651,0.467-1.074c0-0.43-0.152-0.798-0.457-1.106c-0.304-0.308-0.671-0.462-1.101-0.462
			c-0.416,0-0.777,0.152-1.085,0.457c-0.308,0.304-0.462,0.665-0.462,1.08c0,0.416,0.152,0.777,0.457,1.085
			C84.238,3.681,84.602,3.835,85.024,3.835z"/>
		<path d="M107.658,8.186c-0.079,1.289-0.193,2.288-0.344,2.997s-0.535,1.699-1.155,2.97
			c-0.62,1.271-1.513,2.342-2.68,3.213c-1.167,0.869-2.621,1.547-4.361,2.029c-1.74,0.484-3.792,0.758-6.155,0.822l-0.312-1.558
			c4.075-0.093,7.174-0.868,9.297-2.325c2.124-1.458,3.375-3.669,3.754-6.634H90.105V8.186H107.658z M106.917,4.383H90.965V2.879
			h15.952V4.383z"/>
		<path d="M131.291,19.078l-1.525,1.182c-1.962-2.02-4.645-4.461-8.046-7.326c-3.56,3.424-7.101,5.837-10.624,7.24
			l-0.816-1.364c2.95-1.203,5.889-3.11,8.814-5.72c2.925-2.611,4.975-5.463,6.15-8.557h-12.257V3.04h14.19l0.44,0.397
			c-1.003,3.037-2.61,5.808-4.823,8.314C124.985,13.464,127.817,15.906,131.291,19.078z"/>
		<path d="M144.536,11.021c-0.015,1.439-0.15,2.586-0.408,3.438c-0.258,0.853-0.765,1.699-1.52,2.541
			c-0.756,0.841-1.692,1.534-2.81,2.078s-2.356,0.945-3.717,1.203l-0.655-1.429c0.988-0.179,1.953-0.473,2.895-0.881
			c0.942-0.408,1.785-0.976,2.53-1.702c0.745-0.728,1.237-1.467,1.478-2.219c0.239-0.752,0.359-1.762,0.359-3.029h-9.797V9.464
			h9.797V5.113c-1.905,0.222-4.43,0.394-7.573,0.516l-0.269-1.493c2.785-0.057,5.557-0.275,8.314-0.655
			c2.757-0.379,4.952-0.863,6.585-1.45l1.074,1.407c-1.325,0.501-3.42,0.974-6.284,1.418l-0.011,4.608h8.497v1.558H144.536z"/>
		<path d="M160.961,13.138l-1.687,0.548c-0.609-1.99-1.476-4.035-2.6-6.134l1.493-0.559
			c0.616,1.074,1.053,1.895,1.311,2.46C159.736,10.02,160.23,11.247,160.961,13.138z M172.251,6.628
			c-0.537,4.469-1.871,7.763-4.002,9.883c-2.13,2.12-5.064,3.438-8.803,3.953l-0.483-1.429c4.082-0.587,6.961-1.994,8.637-4.222
			s2.639-5.009,2.89-8.347L172.251,6.628z M166.182,12.106l-1.697,0.569c-0.494-1.747-1.36-3.795-2.6-6.145l1.504-0.591
			c0.81,1.497,1.313,2.505,1.515,3.024C165.104,9.483,165.53,10.531,166.182,12.106z"/>
		<path d="M186.882,1.912c-0.208,0.681-0.505,1.415-0.892,2.202h10.42l-0.086,1.493
			c-0.021,0.43-0.204,1.264-0.548,2.503c-0.223,0.795-0.496,1.594-0.822,2.396c-0.325,0.803-0.754,1.633-1.283,2.492
			c-0.53,0.859-1.169,1.669-1.918,2.428c-0.748,0.76-1.62,1.452-2.615,2.078c-0.996,0.627-2.146,1.184-3.453,1.671
			c-1.308,0.487-2.728,0.881-4.26,1.182l-0.634-1.547c4.132-0.802,7.278-2.28,9.437-4.437c2.16-2.155,3.515-5.052,4.066-8.69h-9.152
			c-0.846,1.39-1.893,2.705-3.143,3.948c-1.249,1.242-2.555,2.258-3.915,3.045l-1.01-1.192c1.897-1.203,3.552-2.737,4.963-4.603
			s2.366-3.607,2.868-5.226L186.882,1.912z"/>
		<path d="M216.52,19.024c-2.142,0.329-4.552,0.494-7.229,0.494h-1.268c-3.395,0-5.691-0.344-6.891-1.031
			c-1.2-0.688-1.8-1.672-1.8-2.954c0-1.561,0.733-2.982,2.202-4.265l1.171,0.87c-1.16,1.139-1.74,2.23-1.74,3.276
			c0,0.909,0.521,1.565,1.563,1.966c1.041,0.401,3.166,0.602,6.375,0.602c2.492,0,4.941-0.179,7.348-0.537L216.52,19.024z
			 M214.994,5.371c-1.912,0.745-3.749,1.629-5.511,2.653L208.71,6.95c0.723-0.387,1.815-0.952,3.276-1.697l-0.043-0.215
			c-2.492,0.043-6.234,0.161-11.226,0.354l-0.086-1.504c3.309-0.136,7.154-0.204,11.537-0.204c1.031,0,1.758,0.011,2.181,0.032
			L214.994,5.371z M216.67,3.889l-1.225,0.548c-0.516-1.153-1.038-2.155-1.568-3.008l1.171-0.526
			C215.671,1.869,216.212,2.865,216.67,3.889z M219.667,3.448l-1.235,0.505c-0.473-1.11-0.985-2.102-1.536-2.976l1.117-0.526
			C218.593,1.347,219.144,2.346,219.667,3.448z"/>
		<path d="M241.431,12.139l-0.526,1.59c-0.96-0.372-1.852-0.701-2.675-0.988c-0.365,1.733-0.963,3.194-1.794,4.383
			c-0.831,1.189-1.98,2.234-3.448,3.137l-0.988-1.117c2.549-1.726,4.096-4.039,4.641-6.939c-2.264-0.709-4.372-1.171-6.327-1.386
			c-2.005,5.356-4.239,8.035-6.703,8.035c-0.788,0-1.443-0.296-1.966-0.886c-0.523-0.592-0.784-1.306-0.784-2.144
			c0-0.917,0.263-1.874,0.79-2.874c0.525-0.998,1.361-1.865,2.508-2.6c1.146-0.733,2.445-1.104,3.899-1.111
			c0.329,0,0.669,0.007,1.021,0.021c0.537-1.647,0.895-3.283,1.074-4.909h-6.821V2.986h8.422l0.333,0.354
			c-0.272,2.22-0.698,4.243-1.278,6.069c1.884,0.223,3.899,0.652,6.048,1.289c0.043-0.522,0.064-1.808,0.064-3.856h1.676
			l0.011,1.869c0,0.995-0.04,1.826-0.118,2.492C239.146,11.404,240.127,11.717,241.431,12.139z M228.594,10.688
			c-0.329-0.015-0.595-0.021-0.795-0.021c-1.117,0-2.097,0.303-2.938,0.907c-0.841,0.605-1.457,1.331-1.848,2.176
			c-0.39,0.846-0.585,1.551-0.585,2.116c0,0.394,0.132,0.734,0.397,1.021c0.265,0.287,0.587,0.43,0.967,0.43
			c0.752,0,1.604-0.7,2.557-2.1C227.301,13.816,228.05,12.307,228.594,10.688z"/>
	</g>
	<g>
		<path d="M59.262,30.754c-0.215,0.094-0.41,0.181-0.583,0.263c-0.174,0.082-0.402,0.168-0.683,0.257
			c-0.238,0.074-0.498,0.139-0.777,0.191c-0.279,0.053-0.587,0.078-0.923,0.078c-0.633,0-1.209-0.088-1.727-0.266
			s-0.969-0.457-1.352-0.836c-0.375-0.37-0.668-0.842-0.88-1.414c-0.211-0.572-0.316-1.236-0.316-1.994
			c0-0.719,0.102-1.361,0.305-1.928c0.204-0.566,0.497-1.045,0.88-1.436c0.371-0.379,0.82-0.668,1.346-0.867s1.109-0.299,1.75-0.299
			c0.469,0,0.937,0.057,1.404,0.17s0.986,0.313,1.557,0.597v1.374h-0.088c-0.48-0.4-0.958-0.691-1.43-0.874
			c-0.473-0.183-0.979-0.274-1.518-0.274c-0.441,0-0.839,0.072-1.193,0.215s-0.669,0.363-0.947,0.664
			c-0.27,0.293-0.479,0.663-0.63,1.11s-0.226,0.964-0.226,1.55c0,0.613,0.083,1.141,0.249,1.581c0.166,0.441,0.38,0.801,0.642,1.077
			c0.273,0.289,0.593,0.504,0.958,0.643s0.751,0.207,1.158,0.207c0.559,0,1.082-0.096,1.571-0.287
			c0.488-0.191,0.946-0.479,1.372-0.861h0.082V30.754z"/>
		<path d="M61.922,31.387h-1.102V22.27h1.102V31.387z"/>
		<path d="M69.676,28.117c0,1.066-0.273,1.907-0.819,2.523c-0.546,0.617-1.276,0.926-2.193,0.926
			c-0.925,0-1.658-0.309-2.202-0.926c-0.545-0.616-0.816-1.457-0.816-2.523s0.271-1.909,0.816-2.527
			c0.544-0.619,1.277-0.93,2.202-0.93c0.917,0,1.647,0.311,2.193,0.93C69.403,26.208,69.676,27.051,69.676,28.117z M68.536,28.117
			c0-0.846-0.165-1.475-0.496-1.887c-0.33-0.411-0.789-0.617-1.376-0.617c-0.595,0-1.057,0.206-1.385,0.617
			c-0.329,0.412-0.493,1.041-0.493,1.887c0,0.818,0.165,1.439,0.496,1.861c0.33,0.424,0.791,0.635,1.382,0.635
			c0.583,0,1.041-0.209,1.373-0.629C68.37,29.566,68.536,28.943,68.536,28.117z"/>
		<path d="M74.78,31.334c-0.207,0.054-0.432,0.099-0.675,0.133c-0.244,0.035-0.461,0.053-0.652,0.053
			c-0.666,0-1.173-0.18-1.52-0.539s-0.521-0.936-0.521-1.729V25.77H70.67v-0.93h0.742v-1.883h1.102v1.883h2.266v0.93h-2.266v2.988
			c0,0.344,0.008,0.613,0.023,0.807s0.07,0.375,0.163,0.543c0.086,0.156,0.204,0.271,0.354,0.344s0.379,0.107,0.687,0.107
			c0.179,0,0.365-0.025,0.561-0.078c0.194-0.053,0.334-0.098,0.42-0.133h0.059V31.334z"/>
		<path d="M81.586,31.387h-1.102v-3.728c0-0.301-0.018-0.583-0.053-0.847s-0.1-0.471-0.193-0.619
			c-0.098-0.164-0.238-0.285-0.421-0.365c-0.184-0.08-0.422-0.121-0.714-0.121c-0.301,0-0.615,0.074-0.942,0.223
			c-0.328,0.148-0.642,0.338-0.942,0.568v4.889h-1.102V22.27h1.102v3.299c0.344-0.285,0.698-0.508,1.065-0.668s0.743-0.24,1.13-0.24
			c0.706,0,1.245,0.213,1.615,0.639c0.371,0.426,0.557,1.039,0.557,1.84V31.387z"/>
		<path d="M89.188,28.23h-4.82c0,0.402,0.061,0.752,0.182,1.05s0.287,0.542,0.498,0.733
			c0.203,0.188,0.444,0.327,0.725,0.421c0.279,0.093,0.587,0.14,0.923,0.14c0.445,0,0.894-0.088,1.345-0.266
			c0.452-0.178,0.773-0.352,0.965-0.523h0.059v1.2c-0.371,0.156-0.75,0.287-1.137,0.392c-0.387,0.105-0.793,0.158-1.219,0.158
			c-1.086,0-1.934-0.293-2.543-0.881s-0.914-1.422-0.914-2.504c0-1.069,0.292-1.918,0.875-2.547
			c0.584-0.629,1.352-0.943,2.305-0.943c0.882,0,1.563,0.258,2.041,0.774c0.478,0.517,0.717,1.249,0.717,2.198V28.23z
			 M88.118,27.387c-0.004-0.578-0.149-1.027-0.437-1.344c-0.287-0.317-0.724-0.477-1.31-0.477c-0.59,0-1.06,0.175-1.409,0.523
			c-0.35,0.348-0.548,0.781-0.595,1.297H88.118z"/>
		<path d="M95.532,29.499c0,0.598-0.247,1.088-0.74,1.47c-0.494,0.383-1.168,0.574-2.022,0.574
			c-0.483,0-0.928-0.057-1.331-0.172c-0.404-0.115-0.742-0.242-1.016-0.379v-1.238h0.059c0.347,0.264,0.733,0.473,1.158,0.627
			c0.426,0.156,0.833,0.232,1.223,0.232c0.484,0,0.862-0.078,1.136-0.234c0.272-0.156,0.409-0.402,0.409-0.739
			c0-0.258-0.074-0.453-0.223-0.586c-0.147-0.132-0.433-0.245-0.854-0.339c-0.156-0.035-0.359-0.076-0.611-0.123
			c-0.251-0.047-0.48-0.098-0.687-0.152c-0.573-0.152-0.979-0.377-1.22-0.672c-0.239-0.295-0.359-0.656-0.359-1.086
			c0-0.27,0.056-0.523,0.167-0.762c0.11-0.238,0.279-0.451,0.506-0.639c0.218-0.184,0.496-0.328,0.833-0.436
			c0.338-0.107,0.715-0.162,1.133-0.162c0.39,0,0.784,0.049,1.185,0.145c0.399,0.096,0.731,0.212,0.997,0.349v1.179h-0.059
			c-0.28-0.207-0.622-0.383-1.023-0.527c-0.401-0.143-0.795-0.215-1.181-0.215c-0.401,0-0.741,0.078-1.018,0.232
			s-0.415,0.385-0.415,0.689c0,0.27,0.084,0.473,0.252,0.609c0.163,0.137,0.429,0.248,0.795,0.334
			c0.202,0.047,0.43,0.094,0.682,0.141c0.251,0.047,0.461,0.09,0.628,0.129c0.511,0.117,0.904,0.318,1.182,0.604
			C95.393,28.641,95.532,29.023,95.532,29.499z"/>
		<path d="M103.01,25.994v2.016h-2.016v-2.016H103.01z"/>
		<path d="M114.901,25.299c0,0.387-0.067,0.746-0.202,1.076c-0.134,0.33-0.322,0.617-0.564,0.859
			c-0.3,0.301-0.655,0.527-1.064,0.678s-0.926,0.225-1.55,0.225h-1.158v3.25h-1.164V22.66h2.365c0.523,0,0.967,0.045,1.329,0.133
			c0.363,0.088,0.686,0.226,0.967,0.413c0.331,0.223,0.588,0.501,0.77,0.833S114.901,24.791,114.901,25.299z M113.69,25.33
			c0-0.301-0.053-0.563-0.158-0.785c-0.104-0.223-0.264-0.404-0.479-0.545c-0.187-0.121-0.399-0.207-0.639-0.26
			c-0.24-0.053-0.543-0.08-0.908-0.08h-1.145v3.484h0.975c0.468,0,0.847-0.041,1.139-0.125s0.529-0.219,0.713-0.402
			c0.183-0.187,0.313-0.384,0.388-0.59C113.652,25.82,113.69,25.588,113.69,25.33z"/>
		<path d="M117.458,31.387h-1.102V22.27h1.102V31.387z"/>
		<path d="M124.728,31.387h-1.102v-0.699c-0.098,0.066-0.23,0.16-0.396,0.279c-0.164,0.119-0.326,0.213-0.482,0.283
			c-0.184,0.09-0.395,0.166-0.633,0.227c-0.236,0.061-0.516,0.09-0.836,0.09c-0.589,0-1.089-0.195-1.5-0.586
			c-0.409-0.391-0.614-0.889-0.614-1.494c0-0.496,0.106-0.898,0.319-1.205c0.212-0.307,0.516-0.548,0.91-0.725
			c0.397-0.176,0.876-0.295,1.435-0.357c0.557-0.063,1.156-0.109,1.797-0.141v-0.168c0-0.249-0.045-0.455-0.133-0.618
			s-0.213-0.292-0.377-0.384c-0.156-0.09-0.344-0.15-0.563-0.182s-0.447-0.047-0.686-0.047c-0.289,0-0.611,0.038-0.967,0.113
			c-0.354,0.074-0.721,0.183-1.1,0.324h-0.059v-1.115c0.215-0.059,0.525-0.123,0.933-0.193c0.406-0.07,0.806-0.105,1.203-0.105
			c0.461,0,0.861,0.039,1.205,0.115c0.342,0.076,0.637,0.205,0.887,0.389c0.248,0.18,0.436,0.412,0.564,0.697
			s0.193,0.639,0.193,1.061V31.387z M123.626,29.775v-1.826c-0.336,0.02-0.73,0.049-1.184,0.088
			c-0.455,0.039-0.814,0.097-1.078,0.171c-0.316,0.09-0.572,0.229-0.767,0.419c-0.194,0.19-0.292,0.451-0.292,0.783
			c0,0.377,0.113,0.659,0.339,0.849c0.227,0.19,0.572,0.284,1.035,0.284c0.387,0,0.738-0.074,1.059-0.226
			C123.056,30.167,123.353,29.986,123.626,29.775z"/>
		<path d="M131.521,29.499c0,0.598-0.248,1.088-0.74,1.47c-0.494,0.383-1.168,0.574-2.023,0.574
			c-0.482,0-0.928-0.057-1.33-0.172c-0.404-0.115-0.742-0.242-1.016-0.379v-1.238h0.059c0.346,0.264,0.732,0.473,1.158,0.627
			c0.426,0.156,0.832,0.232,1.223,0.232c0.484,0,0.861-0.078,1.135-0.234s0.41-0.402,0.41-0.739c0-0.258-0.074-0.453-0.223-0.586
			c-0.148-0.132-0.434-0.245-0.854-0.339c-0.156-0.035-0.359-0.076-0.611-0.123s-0.48-0.098-0.688-0.152
			c-0.572-0.152-0.979-0.377-1.219-0.672s-0.359-0.656-0.359-1.086c0-0.27,0.055-0.523,0.166-0.762s0.279-0.451,0.506-0.639
			c0.219-0.184,0.496-0.328,0.834-0.436s0.715-0.162,1.133-0.162c0.389,0,0.783,0.049,1.184,0.145s0.732,0.212,0.998,0.349v1.179
			h-0.059c-0.281-0.207-0.623-0.383-1.023-0.527c-0.402-0.143-0.795-0.215-1.182-0.215c-0.4,0-0.74,0.078-1.018,0.232
			c-0.275,0.154-0.414,0.385-0.414,0.689c0,0.27,0.084,0.473,0.252,0.609c0.162,0.137,0.428,0.248,0.795,0.334
			c0.201,0.047,0.43,0.094,0.682,0.141c0.25,0.047,0.461,0.09,0.627,0.129c0.512,0.117,0.904,0.318,1.182,0.604
			C131.382,28.641,131.521,29.023,131.521,29.499z"/>
		<path d="M136.491,31.334c-0.207,0.054-0.432,0.099-0.676,0.133c-0.244,0.035-0.461,0.053-0.652,0.053
			c-0.666,0-1.172-0.18-1.52-0.539c-0.346-0.359-0.52-0.936-0.52-1.729V25.77h-0.742v-0.93h0.742v-1.883h1.102v1.883h2.266v0.93
			h-2.266v2.988c0,0.344,0.008,0.613,0.023,0.807s0.07,0.375,0.162,0.543c0.086,0.156,0.205,0.271,0.354,0.344
			c0.15,0.072,0.379,0.107,0.688,0.107c0.178,0,0.365-0.025,0.561-0.078c0.193-0.053,0.334-0.098,0.42-0.133h0.059V31.334z"/>
		<path d="M139.009,23.746h-1.242v-1.141h1.242V23.746z M138.938,31.387h-1.102V24.84h1.102V31.387z"/>
		<path d="M145.958,30.979c-0.367,0.176-0.715,0.313-1.045,0.41c-0.328,0.098-0.678,0.146-1.049,0.146
			c-0.471,0-0.904-0.068-1.297-0.207c-0.395-0.139-0.732-0.35-1.012-0.631c-0.285-0.281-0.506-0.637-0.66-1.066
			c-0.156-0.43-0.234-0.932-0.234-1.506c0-1.07,0.293-1.91,0.879-2.52c0.588-0.609,1.361-0.914,2.324-0.914
			c0.375,0,0.742,0.053,1.102,0.158c0.361,0.105,0.691,0.234,0.992,0.387v1.221h-0.059c-0.336-0.258-0.682-0.457-1.037-0.596
			c-0.357-0.139-0.705-0.209-1.045-0.209c-0.623,0-1.115,0.21-1.475,0.629c-0.361,0.419-0.541,1.033-0.541,1.844
			c0,0.787,0.176,1.393,0.529,1.815c0.352,0.423,0.848,0.634,1.486,0.634c0.223,0,0.449-0.029,0.68-0.088
			c0.229-0.058,0.436-0.134,0.619-0.227c0.16-0.082,0.309-0.17,0.449-0.261s0.252-0.171,0.334-0.237h0.059V30.979z"/>
		<path d="M152.046,29.499c0,0.598-0.248,1.088-0.74,1.47c-0.494,0.383-1.168,0.574-2.023,0.574
			c-0.482,0-0.928-0.057-1.33-0.172c-0.404-0.115-0.742-0.242-1.016-0.379v-1.238h0.059c0.346,0.264,0.732,0.473,1.158,0.627
			c0.426,0.156,0.832,0.232,1.223,0.232c0.484,0,0.861-0.078,1.135-0.234s0.41-0.402,0.41-0.739c0-0.258-0.074-0.453-0.223-0.586
			c-0.148-0.132-0.434-0.245-0.854-0.339c-0.156-0.035-0.359-0.076-0.611-0.123s-0.48-0.098-0.688-0.152
			c-0.572-0.152-0.979-0.377-1.219-0.672s-0.359-0.656-0.359-1.086c0-0.27,0.055-0.523,0.166-0.762s0.279-0.451,0.506-0.639
			c0.219-0.184,0.496-0.328,0.834-0.436s0.715-0.162,1.133-0.162c0.389,0,0.783,0.049,1.184,0.145s0.732,0.212,0.998,0.349v1.179
			h-0.059c-0.281-0.207-0.623-0.383-1.023-0.527c-0.402-0.143-0.795-0.215-1.182-0.215c-0.4,0-0.74,0.078-1.018,0.232
			c-0.275,0.154-0.414,0.385-0.414,0.689c0,0.27,0.084,0.473,0.252,0.609c0.162,0.137,0.428,0.248,0.795,0.334
			c0.201,0.047,0.43,0.094,0.682,0.141c0.25,0.047,0.461,0.09,0.627,0.129c0.512,0.117,0.904,0.318,1.182,0.604
			C151.907,28.641,152.046,29.023,152.046,29.499z"/>
		<path d="M166.071,24.84l-1.703,6.547h-1.02l-1.68-5.046l-1.668,5.046h-1.014l-1.721-6.547h1.139l1.209,5.07
			l1.633-5.07h0.908l1.674,5.07l1.137-5.07H166.071z"/>
		<path d="M172.751,31.387h-1.102v-0.699c-0.098,0.066-0.23,0.16-0.396,0.279c-0.164,0.119-0.326,0.213-0.482,0.283
			c-0.184,0.09-0.395,0.166-0.633,0.227c-0.236,0.061-0.516,0.09-0.836,0.09c-0.59,0-1.09-0.195-1.5-0.586
			c-0.408-0.391-0.613-0.889-0.613-1.494c0-0.496,0.105-0.898,0.318-1.205s0.516-0.548,0.91-0.725
			c0.398-0.176,0.877-0.295,1.436-0.357c0.557-0.063,1.156-0.109,1.797-0.141v-0.168c0-0.249-0.045-0.455-0.133-0.618
			s-0.213-0.292-0.377-0.384c-0.156-0.09-0.344-0.15-0.563-0.182s-0.447-0.047-0.686-0.047c-0.289,0-0.611,0.038-0.967,0.113
			c-0.354,0.074-0.721,0.183-1.1,0.324h-0.059v-1.115c0.215-0.059,0.525-0.123,0.932-0.193s0.807-0.105,1.203-0.105
			c0.461,0,0.861,0.039,1.205,0.115c0.342,0.076,0.637,0.205,0.887,0.389c0.248,0.18,0.436,0.412,0.564,0.697
			s0.193,0.639,0.193,1.061V31.387z M171.649,29.775v-1.826c-0.336,0.02-0.73,0.049-1.184,0.088
			c-0.455,0.039-0.814,0.097-1.078,0.171c-0.316,0.09-0.572,0.229-0.768,0.419c-0.193,0.19-0.291,0.451-0.291,0.783
			c0,0.377,0.113,0.659,0.338,0.849c0.227,0.19,0.572,0.284,1.035,0.284c0.387,0,0.738-0.074,1.059-0.226
			C171.079,30.167,171.376,29.986,171.649,29.775z"/>
		<path d="M179.544,29.499c0,0.598-0.248,1.088-0.74,1.47c-0.494,0.383-1.168,0.574-2.023,0.574
			c-0.482,0-0.928-0.057-1.33-0.172c-0.404-0.115-0.742-0.242-1.016-0.379v-1.238h0.059c0.346,0.264,0.732,0.473,1.158,0.627
			c0.426,0.156,0.832,0.232,1.223,0.232c0.484,0,0.861-0.078,1.135-0.234s0.41-0.402,0.41-0.739c0-0.258-0.074-0.453-0.223-0.586
			c-0.148-0.132-0.434-0.245-0.854-0.339c-0.156-0.035-0.359-0.076-0.611-0.123s-0.48-0.098-0.688-0.152
			c-0.572-0.152-0.979-0.377-1.219-0.672s-0.359-0.656-0.359-1.086c0-0.27,0.055-0.523,0.166-0.762s0.279-0.451,0.506-0.639
			c0.219-0.184,0.496-0.328,0.834-0.436s0.715-0.162,1.133-0.162c0.389,0,0.783,0.049,1.184,0.145s0.732,0.212,0.998,0.349v1.179
			h-0.059c-0.281-0.207-0.623-0.383-1.023-0.527c-0.402-0.143-0.795-0.215-1.182-0.215c-0.4,0-0.74,0.078-1.018,0.232
			c-0.275,0.154-0.414,0.385-0.414,0.689c0,0.27,0.084,0.473,0.252,0.609c0.162,0.137,0.428,0.248,0.795,0.334
			c0.201,0.047,0.43,0.094,0.682,0.141c0.25,0.047,0.461,0.09,0.627,0.129c0.512,0.117,0.904,0.318,1.182,0.604
			C179.405,28.641,179.544,29.023,179.544,29.499z"/>
		<path d="M184.515,31.334c-0.207,0.054-0.432,0.099-0.676,0.133c-0.244,0.035-0.461,0.053-0.652,0.053
			c-0.666,0-1.172-0.18-1.52-0.539c-0.346-0.359-0.52-0.936-0.52-1.729V25.77h-0.742v-0.93h0.742v-1.883h1.102v1.883h2.266v0.93
			h-2.266v2.988c0,0.344,0.008,0.613,0.023,0.807s0.07,0.375,0.162,0.543c0.086,0.156,0.205,0.271,0.354,0.344
			c0.15,0.072,0.379,0.107,0.688,0.107c0.178,0,0.365-0.025,0.561-0.078c0.193-0.053,0.334-0.098,0.42-0.133h0.059V31.334z"/>
		<path d="M191.329,28.23h-4.82c0,0.402,0.061,0.752,0.182,1.05s0.287,0.542,0.498,0.733
			c0.203,0.188,0.443,0.327,0.725,0.421c0.279,0.093,0.586,0.14,0.922,0.14c0.445,0,0.895-0.088,1.346-0.266
			s0.773-0.352,0.965-0.523h0.059v1.2c-0.371,0.156-0.75,0.287-1.137,0.392c-0.387,0.105-0.793,0.158-1.219,0.158
			c-1.086,0-1.934-0.293-2.543-0.881s-0.914-1.422-0.914-2.504c0-1.069,0.291-1.918,0.875-2.547s1.352-0.943,2.305-0.943
			c0.881,0,1.563,0.258,2.041,0.774c0.477,0.517,0.717,1.249,0.717,2.198V28.23z M190.259,27.387
			c-0.004-0.578-0.15-1.027-0.438-1.344c-0.287-0.317-0.723-0.477-1.309-0.477c-0.59,0-1.061,0.175-1.41,0.523
			c-0.35,0.348-0.547,0.781-0.594,1.297H190.259z"/>
	</g>
</symbol>


<symbol id="kinzoku_hikaku" viewBox="0 0 241 35.363">
	<g>
		<path d="M57.231,20.208c0.415-0.788,1.031-2.267,1.848-4.437l1.772,0.43c-0.451,0.938-1.114,2.273-1.987,4.007
			h4.254v1.311H44.362v-1.311h4.028c-0.638-1.912-1.146-3.247-1.525-4.007l1.644-0.43l1.654,4.437h2.632V14.45H45.21v-1.332h7.584
			v-3.18h-4.286V8.703c-1.547,1.082-3.072,1.97-4.576,2.664l-0.784-1.139c1.396-0.58,3.14-1.676,5.231-3.287
			c2.091-1.611,3.509-3.058,4.254-4.34H54.9c0.917,1.282,2.261,2.608,4.034,3.98s3.629,2.451,5.57,3.239l-0.913,1.3
			c-1.626-0.666-3.411-1.735-5.355-3.207s-3.4-2.855-4.367-4.152c-1.347,1.726-3.123,3.366-5.328,4.92H59.1v1.257h-4.641v3.18h7.917
			v1.332h-7.917v5.758H57.231z"/>
		<path d="M84.527,6.802H68.478v3.771c0,2.277-0.233,4.492-0.698,6.645c-0.466,2.151-0.981,3.646-1.547,4.484
			l-1.16-0.741c0.494-0.924,0.924-2.247,1.289-3.97c0.365-1.722,0.548-3.449,0.548-5.183V3.214h17.617V6.802z M83.044,5.771V4.288
			H68.478v1.482H83.044z M85.085,20.466c0,0.494-0.172,0.888-0.516,1.182s-0.784,0.44-1.321,0.44h-2.557l-0.204-1.257h2.148
			c0.616,0,0.924-0.247,0.924-0.741v-3.588h-5.833v2.041c1.045-0.1,1.844-0.189,2.396-0.269c-0.107-0.294-0.254-0.662-0.44-1.106
			l1.182-0.354c0.279,0.681,0.691,1.644,1.235,2.89l-1.278,0.365c-0.043-0.1-0.14-0.344-0.29-0.73
			c-1.74,0.266-4.372,0.537-7.896,0.816l-0.269-1.214c1.002-0.05,2.295-0.14,3.878-0.269v-2.17h-5.21v5.672h-1.547V15.46h6.757
			v-1.343h-5.629v-3.631h5.629v-1.3C73.509,9.272,71.46,9.301,70.1,9.272l-0.14-1.074h0.494c2.521,0,5.115-0.068,7.783-0.204
			c2.667-0.136,4.456-0.308,5.366-0.516l0.612,1.139c-1.196,0.236-3.337,0.408-6.424,0.516v1.354H83.7v3.631h-5.908v1.343h7.294
			V20.466z M76.245,13.15v-1.676h-4.179v1.676H76.245z M82.239,13.15v-1.676h-4.447v1.676H82.239z"/>
		<path d="M95.849,12.946c0-0.544,0.193-1.01,0.58-1.396s0.852-0.58,1.396-0.58c0.544,0,1.01,0.193,1.396,0.58
			s0.58,0.853,0.58,1.396s-0.193,1.01-0.58,1.396s-0.853,0.58-1.396,0.58c-0.544,0-1.01-0.193-1.396-0.58
			S95.849,13.49,95.849,12.946z"/>
		<path d="M122.35,17.931c1.977,1.175,4.304,2.045,6.982,2.61l-0.816,1.439c-3.072-0.738-5.579-1.747-7.52-3.029
			c-2.091,1.426-4.559,2.471-7.401,3.137l-0.645-1.257c2.456-0.595,4.687-1.558,6.692-2.89c-1.117-0.931-2.068-1.957-2.852-3.078
			c-0.784-1.12-1.294-2.175-1.531-3.163h-2.02c-0.021,4.34-1.085,7.774-3.19,10.302l-1.074-0.784c0.902-1.239,1.564-2.7,1.987-4.383
			c0.422-1.683,0.634-3.354,0.634-5.017V5.244h7.724V2.526h1.729v2.718h8.282l0.462,0.419c-0.43,1.132-1.063,2.403-1.901,3.813
			l-1.439-0.29c0.236-0.444,0.619-1.325,1.149-2.643h-6.553V10.4h5.876l0.408,0.333C126.424,13.505,124.763,15.904,122.35,17.931z
			 M113.241,10.4h6.08V6.544h-6.08V10.4z M120.986,17.018c2.013-1.683,3.38-3.455,4.104-5.317h-8.218
			C117.616,13.748,118.988,15.521,120.986,17.018z"/>
		<path d="M131.728,18.607v-1.343h9.066v-1.837h-7.38v-4.984h7.38V8.628h-4.104V5.663h-4.941v-1.3h4.941V2.677h1.654
			v1.687h6.735V2.677h1.665v1.687h4.727v1.3h-4.727v2.965h-4.243v1.815h7.627v4.984h-7.627v1.837h9.271v1.343h-9.271v3.556h-1.708
			v-3.556H131.728z M140.794,11.636h-5.726v2.557h5.726V11.636z M138.345,5.663v1.815h6.735V5.663H138.345z M148.497,11.636h-5.994
			v2.557h5.994V11.636z"/>
		<path d="M171.442,20.573c-2.142,0.329-4.552,0.494-7.229,0.494h-1.268c-3.395,0-5.691-0.344-6.891-1.031
			c-1.2-0.688-1.8-1.672-1.8-2.954c0-1.561,0.733-2.982,2.202-4.265l1.171,0.87c-1.16,1.139-1.74,2.23-1.74,3.276
			c0,0.909,0.521,1.565,1.563,1.966c1.041,0.401,3.166,0.602,6.375,0.602c2.492,0,4.941-0.179,7.348-0.537L171.442,20.573z
			 M169.917,6.92c-1.912,0.745-3.749,1.629-5.511,2.653l-0.773-1.074c0.723-0.387,1.815-0.952,3.276-1.697l-0.043-0.215
			c-2.492,0.043-6.234,0.161-11.226,0.354l-0.086-1.504c3.309-0.136,7.154-0.204,11.537-0.204c1.031,0,1.758,0.011,2.181,0.032
			L169.917,6.92z M171.592,5.438l-1.225,0.548c-0.516-1.153-1.038-2.155-1.568-3.008l1.171-0.526
			C170.593,3.418,171.134,4.414,171.592,5.438z M174.589,4.997l-1.235,0.505c-0.473-1.11-0.985-2.102-1.536-2.976L172.935,2
			C173.515,2.896,174.066,3.895,174.589,4.997z"/>
		<path d="M196.353,13.688l-0.526,1.59c-0.96-0.372-1.852-0.701-2.675-0.988c-0.365,1.733-0.963,3.194-1.794,4.383
			c-0.831,1.189-1.98,2.234-3.448,3.137l-0.988-1.117c2.549-1.726,4.096-4.039,4.641-6.939c-2.264-0.709-4.372-1.171-6.327-1.386
			c-2.005,5.356-4.239,8.035-6.703,8.035c-0.788,0-1.443-0.296-1.966-0.886c-0.523-0.592-0.784-1.306-0.784-2.144
			c0-0.917,0.263-1.874,0.79-2.874c0.525-0.998,1.361-1.865,2.508-2.6c1.146-0.733,2.445-1.104,3.899-1.111
			c0.329,0,0.669,0.007,1.021,0.021c0.537-1.647,0.895-3.283,1.074-4.909h-6.821V4.535h8.422l0.333,0.354
			c-0.272,2.22-0.698,4.243-1.278,6.069c1.884,0.223,3.899,0.652,6.048,1.289c0.043-0.522,0.064-1.808,0.064-3.856h1.676
			l0.011,1.869c0,0.995-0.04,1.826-0.118,2.492C194.068,12.953,195.049,13.266,196.353,13.688z M183.516,12.237
			c-0.329-0.015-0.595-0.021-0.795-0.021c-1.117,0-2.097,0.303-2.938,0.907c-0.841,0.605-1.457,1.331-1.848,2.176
			c-0.39,0.846-0.585,1.551-0.585,2.116c0,0.394,0.132,0.734,0.397,1.021c0.265,0.287,0.587,0.43,0.967,0.43
			c0.752,0,1.604-0.7,2.557-2.1C182.223,15.365,182.972,13.855,183.516,12.237z"/>
	</g>
	<g>
		<path d="M64.226,32.887h-1.164v-7.52l-2.425,5.113h-0.691l-2.407-5.113v7.52h-1.086V24.16h1.584l2.325,4.856
			l2.249-4.856h1.615V32.887z"/>
		<path d="M71.957,29.73h-4.82c0,0.402,0.061,0.752,0.182,1.05s0.287,0.542,0.498,0.733
			c0.203,0.188,0.444,0.327,0.724,0.421c0.28,0.093,0.588,0.14,0.924,0.14c0.445,0,0.894-0.088,1.346-0.266
			c0.451-0.178,0.772-0.352,0.964-0.523h0.059v1.2c-0.371,0.156-0.75,0.287-1.137,0.392c-0.387,0.105-0.793,0.158-1.219,0.158
			c-1.086,0-1.934-0.293-2.543-0.881s-0.914-1.422-0.914-2.504c0-1.069,0.292-1.918,0.875-2.547
			c0.584-0.629,1.353-0.943,2.305-0.943c0.882,0,1.563,0.258,2.04,0.774c0.479,0.517,0.718,1.249,0.718,2.198V29.73z M70.886,28.887
			c-0.004-0.578-0.149-1.027-0.437-1.344c-0.287-0.317-0.724-0.477-1.31-0.477c-0.59,0-1.06,0.175-1.409,0.523
			c-0.35,0.348-0.548,0.781-0.595,1.297H70.886z"/>
		<path d="M77.019,32.834c-0.206,0.054-0.432,0.099-0.675,0.133c-0.244,0.035-0.461,0.053-0.652,0.053
			c-0.666,0-1.173-0.18-1.52-0.539c-0.348-0.359-0.521-0.936-0.521-1.729V27.27H72.91v-0.93h0.742v-1.883h1.102v1.883h2.266v0.93
			h-2.266v2.988c0,0.344,0.008,0.613,0.023,0.807s0.07,0.375,0.163,0.543c0.086,0.156,0.203,0.271,0.354,0.344
			s0.379,0.107,0.687,0.107c0.179,0,0.365-0.025,0.561-0.078c0.194-0.053,0.335-0.098,0.42-0.133h0.059V32.834z"/>
		<path d="M83.443,32.887h-1.102v-0.699c-0.098,0.066-0.229,0.16-0.396,0.279s-0.326,0.213-0.482,0.283
			c-0.184,0.09-0.395,0.166-0.633,0.227s-0.517,0.09-0.837,0.09c-0.589,0-1.089-0.195-1.499-0.586
			c-0.409-0.391-0.614-0.889-0.614-1.494c0-0.496,0.106-0.898,0.319-1.205c0.212-0.307,0.516-0.548,0.91-0.725
			c0.398-0.176,0.876-0.295,1.435-0.357c0.558-0.063,1.157-0.109,1.797-0.141v-0.168c0-0.249-0.044-0.455-0.132-0.618
			s-0.214-0.292-0.378-0.384c-0.156-0.09-0.344-0.15-0.562-0.182c-0.219-0.031-0.447-0.047-0.686-0.047
			c-0.289,0-0.611,0.038-0.967,0.113c-0.355,0.074-0.722,0.183-1.101,0.324h-0.059v-1.115c0.215-0.059,0.525-0.123,0.933-0.193
			c0.406-0.07,0.807-0.105,1.202-0.105c0.461,0,0.862,0.039,1.205,0.115c0.342,0.076,0.638,0.205,0.888,0.389
			c0.247,0.18,0.435,0.412,0.563,0.697s0.193,0.639,0.193,1.061V32.887z M82.341,31.275v-1.826c-0.335,0.02-0.729,0.049-1.184,0.088
			s-0.813,0.097-1.079,0.171c-0.315,0.09-0.57,0.229-0.766,0.419c-0.194,0.19-0.292,0.451-0.292,0.783
			c0,0.377,0.113,0.659,0.339,0.849c0.227,0.19,0.571,0.284,1.035,0.284c0.386,0,0.738-0.074,1.058-0.226
			C81.772,31.667,82.069,31.486,82.341,31.275z"/>
		<path d="M86.673,32.887h-1.102V23.77h1.102V32.887z"/>
		<path d="M94.755,27.494v2.016H92.74v-2.016H94.755z"/>
		<path d="M103.185,32.887h-1.102V23.77h1.102V32.887z"/>
		<path d="M110.845,29.73h-4.82c0,0.402,0.061,0.752,0.182,1.05s0.287,0.542,0.498,0.733
			c0.203,0.188,0.444,0.327,0.724,0.421c0.28,0.093,0.588,0.14,0.924,0.14c0.445,0,0.894-0.088,1.346-0.266
			c0.451-0.178,0.772-0.352,0.964-0.523h0.059v1.2c-0.371,0.156-0.75,0.287-1.137,0.392c-0.387,0.105-0.793,0.158-1.219,0.158
			c-1.086,0-1.934-0.293-2.543-0.881s-0.914-1.422-0.914-2.504c0-1.069,0.292-1.918,0.875-2.547
			c0.584-0.629,1.353-0.943,2.305-0.943c0.882,0,1.563,0.258,2.04,0.774c0.479,0.517,0.718,1.249,0.718,2.198V29.73z
			 M109.775,28.887c-0.004-0.578-0.149-1.027-0.437-1.344c-0.287-0.317-0.724-0.477-1.31-0.477c-0.59,0-1.06,0.175-1.409,0.523
			c-0.35,0.348-0.548,0.781-0.595,1.297H109.775z"/>
		<path d="M117.603,32.887h-1.102v-0.699c-0.098,0.066-0.229,0.16-0.396,0.279s-0.326,0.213-0.482,0.283
			c-0.184,0.09-0.395,0.166-0.633,0.227s-0.517,0.09-0.837,0.09c-0.589,0-1.089-0.195-1.499-0.586
			c-0.409-0.391-0.614-0.889-0.614-1.494c0-0.496,0.106-0.898,0.319-1.205c0.212-0.307,0.516-0.548,0.91-0.725
			c0.398-0.176,0.876-0.295,1.435-0.357c0.558-0.063,1.157-0.109,1.797-0.141v-0.168c0-0.249-0.044-0.455-0.132-0.618
			s-0.214-0.292-0.378-0.384c-0.156-0.09-0.344-0.15-0.562-0.182c-0.219-0.031-0.447-0.047-0.686-0.047
			c-0.289,0-0.611,0.038-0.967,0.113c-0.355,0.074-0.722,0.183-1.101,0.324h-0.059v-1.115c0.215-0.059,0.525-0.123,0.933-0.193
			c0.406-0.07,0.807-0.105,1.202-0.105c0.461,0,0.862,0.039,1.205,0.115c0.342,0.076,0.638,0.205,0.888,0.389
			c0.247,0.18,0.435,0.412,0.563,0.697s0.193,0.639,0.193,1.061V32.887z M116.501,31.275v-1.826
			c-0.335,0.02-0.729,0.049-1.184,0.088s-0.813,0.097-1.079,0.171c-0.315,0.09-0.57,0.229-0.766,0.419
			c-0.194,0.19-0.292,0.451-0.292,0.783c0,0.377,0.113,0.659,0.339,0.849c0.227,0.19,0.571,0.284,1.035,0.284
			c0.386,0,0.738-0.074,1.058-0.226C115.932,31.667,116.229,31.486,116.501,31.275z"/>
		<path d="M123.115,32.834c-0.206,0.054-0.432,0.099-0.675,0.133c-0.244,0.035-0.461,0.053-0.652,0.053
			c-0.666,0-1.173-0.18-1.52-0.539c-0.348-0.359-0.521-0.936-0.521-1.729V27.27h-0.742v-0.93h0.742v-1.883h1.102v1.883h2.266v0.93
			h-2.266v2.988c0,0.344,0.008,0.613,0.023,0.807s0.07,0.375,0.163,0.543c0.086,0.156,0.203,0.271,0.354,0.344
			s0.379,0.107,0.687,0.107c0.179,0,0.365-0.025,0.561-0.078c0.194-0.053,0.335-0.098,0.42-0.133h0.059V32.834z"/>
		<path d="M129.921,32.887h-1.102v-3.728c0-0.301-0.018-0.583-0.053-0.847s-0.1-0.471-0.193-0.619
			c-0.098-0.164-0.237-0.285-0.421-0.365s-0.422-0.121-0.714-0.121c-0.301,0-0.615,0.074-0.942,0.223
			c-0.328,0.148-0.642,0.338-0.942,0.568v4.889h-1.102V23.77h1.102v3.299c0.344-0.285,0.698-0.508,1.065-0.668s0.743-0.24,1.13-0.24
			c0.706,0,1.245,0.213,1.616,0.639c0.37,0.426,0.556,1.039,0.556,1.84V32.887z"/>
		<path d="M137.523,29.73h-4.82c0,0.402,0.061,0.752,0.182,1.05s0.287,0.542,0.498,0.733
			c0.203,0.188,0.444,0.327,0.724,0.421c0.28,0.093,0.588,0.14,0.924,0.14c0.445,0,0.894-0.088,1.346-0.266
			c0.451-0.178,0.772-0.352,0.964-0.523h0.059v1.2c-0.371,0.156-0.75,0.287-1.137,0.392c-0.387,0.105-0.793,0.158-1.219,0.158
			c-1.086,0-1.934-0.293-2.543-0.881s-0.914-1.422-0.914-2.504c0-1.069,0.292-1.918,0.875-2.547
			c0.584-0.629,1.353-0.943,2.305-0.943c0.882,0,1.563,0.258,2.04,0.774c0.479,0.517,0.718,1.249,0.718,2.198V29.73z
			 M136.453,28.887c-0.004-0.578-0.149-1.027-0.437-1.344c-0.287-0.317-0.724-0.477-1.31-0.477c-0.59,0-1.06,0.175-1.409,0.523
			c-0.35,0.348-0.548,0.781-0.595,1.297H136.453z"/>
		<path d="M143.281,27.543h-0.059c-0.164-0.037-0.323-0.066-0.478-0.083s-0.338-0.026-0.549-0.026
			c-0.34,0-0.668,0.076-0.984,0.227c-0.317,0.15-0.622,0.344-0.915,0.582v4.645h-1.102V26.34h1.102v0.967
			c0.438-0.352,0.823-0.6,1.158-0.746c0.334-0.146,0.675-0.221,1.022-0.221c0.191,0,0.331,0.006,0.417,0.016
			s0.215,0.027,0.387,0.055V27.543z"/>
		<path d="M153.839,32.141c0,1.109-0.252,1.924-0.755,2.443c-0.504,0.52-1.278,0.779-2.325,0.779
			c-0.347,0-0.686-0.023-1.016-0.072c-0.329-0.049-0.654-0.119-0.975-0.209v-1.125h0.059c0.18,0.07,0.464,0.156,0.854,0.26
			s0.78,0.154,1.171,0.154c0.374,0,0.685-0.045,0.931-0.134s0.438-0.214,0.573-0.374c0.137-0.151,0.234-0.334,0.293-0.549
			c0.059-0.213,0.088-0.453,0.088-0.717v-0.596c-0.332,0.266-0.649,0.465-0.952,0.596s-0.688,0.195-1.156,0.195
			c-0.781,0-1.401-0.281-1.859-0.848c-0.459-0.564-0.688-1.361-0.688-2.389c0-0.563,0.079-1.049,0.237-1.457
			c0.158-0.409,0.374-0.762,0.647-1.059c0.253-0.278,0.562-0.494,0.925-0.648s0.725-0.232,1.084-0.232
			c0.379,0,0.695,0.039,0.951,0.115s0.526,0.191,0.812,0.349l0.07-0.284h1.031V32.141z M152.738,31.09v-3.568
			c-0.292-0.133-0.564-0.227-0.816-0.283c-0.251-0.057-0.502-0.086-0.751-0.086c-0.604,0-1.08,0.203-1.428,0.609
			c-0.347,0.406-0.521,0.996-0.521,1.77c0,0.734,0.129,1.291,0.386,1.67c0.258,0.379,0.685,0.568,1.281,0.568
			c0.32,0,0.641-0.061,0.963-0.184C152.173,31.463,152.469,31.297,152.738,31.09z"/>
		<path d="M161.582,29.617c0,1.066-0.273,1.907-0.819,2.523c-0.546,0.617-1.277,0.926-2.193,0.926
			c-0.924,0-1.658-0.309-2.202-0.926c-0.544-0.616-0.816-1.457-0.816-2.523s0.272-1.909,0.816-2.527
			c0.544-0.619,1.278-0.93,2.202-0.93c0.916,0,1.647,0.311,2.193,0.93C161.308,27.708,161.582,28.551,161.582,29.617z
			 M160.441,29.617c0-0.846-0.165-1.475-0.496-1.887c-0.33-0.411-0.789-0.617-1.376-0.617c-0.595,0-1.057,0.206-1.385,0.617
			c-0.329,0.412-0.493,1.041-0.493,1.887c0,0.818,0.165,1.439,0.496,1.861c0.33,0.424,0.791,0.635,1.382,0.635
			c0.583,0,1.041-0.209,1.373-0.629C160.275,31.066,160.441,30.443,160.441,29.617z"/>
		<path d="M168.865,29.617c0,1.066-0.273,1.907-0.819,2.523c-0.546,0.617-1.277,0.926-2.193,0.926
			c-0.924,0-1.658-0.309-2.202-0.926c-0.544-0.616-0.816-1.457-0.816-2.523s0.272-1.909,0.816-2.527
			c0.544-0.619,1.278-0.93,2.202-0.93c0.916,0,1.647,0.311,2.193,0.93C168.591,27.708,168.865,28.551,168.865,29.617z
			 M167.724,29.617c0-0.846-0.165-1.475-0.496-1.887c-0.33-0.411-0.789-0.617-1.376-0.617c-0.595,0-1.057,0.206-1.385,0.617
			c-0.329,0.412-0.493,1.041-0.493,1.887c0,0.818,0.165,1.439,0.496,1.861c0.33,0.424,0.791,0.635,1.382,0.635
			c0.583,0,1.041-0.209,1.373-0.629C167.558,31.066,167.724,30.443,167.724,29.617z"/>
		<path d="M175.882,32.887h-1.102v-0.688c-0.316,0.273-0.646,0.486-0.99,0.639c-0.343,0.152-0.716,0.229-1.118,0.229
			c-0.781,0-1.401-0.301-1.859-0.902c-0.459-0.601-0.688-1.434-0.688-2.5c0-0.555,0.079-1.049,0.237-1.482s0.372-0.803,0.642-1.107
			c0.265-0.297,0.574-0.523,0.928-0.68s0.72-0.234,1.099-0.234c0.344,0,0.647,0.037,0.913,0.109s0.545,0.184,0.838,0.336V23.77
			h1.102V32.887z M174.781,31.275V27.52c-0.296-0.133-0.562-0.225-0.796-0.275c-0.233-0.051-0.489-0.076-0.766-0.076
			c-0.616,0-1.096,0.215-1.439,0.645c-0.343,0.43-0.515,1.039-0.515,1.828c0,0.777,0.133,1.369,0.397,1.773
			c0.266,0.404,0.69,0.605,1.275,0.605c0.313,0,0.628-0.068,0.947-0.207C174.206,31.674,174.504,31.494,174.781,31.275z"/>
		<path d="M182.726,30.999c0,0.598-0.247,1.088-0.74,1.47c-0.494,0.383-1.168,0.574-2.022,0.574
			c-0.483,0-0.928-0.057-1.331-0.172c-0.404-0.115-0.742-0.242-1.016-0.379v-1.238h0.059c0.347,0.264,0.733,0.473,1.158,0.627
			c0.425,0.156,0.833,0.232,1.223,0.232c0.484,0,0.862-0.078,1.136-0.234c0.272-0.156,0.409-0.402,0.409-0.739
			c0-0.258-0.074-0.453-0.222-0.586c-0.148-0.132-0.434-0.245-0.854-0.339c-0.156-0.035-0.359-0.076-0.611-0.123
			c-0.251-0.047-0.48-0.098-0.687-0.152c-0.573-0.152-0.979-0.377-1.22-0.672c-0.239-0.295-0.359-0.656-0.359-1.086
			c0-0.27,0.056-0.523,0.167-0.762s0.279-0.451,0.506-0.639c0.219-0.184,0.496-0.328,0.834-0.436
			c0.337-0.107,0.714-0.162,1.132-0.162c0.39,0,0.784,0.049,1.185,0.145c0.399,0.096,0.731,0.212,0.997,0.349v1.179h-0.059
			c-0.28-0.207-0.622-0.383-1.023-0.527c-0.401-0.143-0.795-0.215-1.181-0.215c-0.401,0-0.74,0.078-1.018,0.232
			c-0.276,0.154-0.415,0.385-0.415,0.689c0,0.27,0.084,0.473,0.251,0.609c0.164,0.137,0.43,0.248,0.796,0.334
			c0.202,0.047,0.43,0.094,0.681,0.141c0.252,0.047,0.461,0.09,0.629,0.129c0.511,0.117,0.904,0.318,1.182,0.604
			C182.587,30.141,182.726,30.523,182.726,30.999z"/>
	</g>
</symbol>


</svg>
