<?xml version="1.0" encoding="utf-8"?>
<!-- Generator: Adobe Illustrator 12.0.0, SVG Export Plug-In . SVG Version: 6.00 Build 51448)  -->
<!DOCTYPE svg PUBLIC "-//W3C//DTD SVG 1.1//EN" "http://www.w3.org/Graphics/SVG/1.1/DTD/svg11.dtd" [
	<!ENTITY ns_svg "http://www.w3.org/2000/svg">
	<!ENTITY ns_xlink "http://www.w3.org/1999/xlink">
]>
<svg  version="1.1" id="レイヤー_1" xmlns="&ns_svg;" xmlns:xlink="&ns_xlink;" width="153.205" height="20.174"
	 viewBox="0 0 153.205 20.174" overflow="visible" enable-background="new 0 0 153.205 20.174" xml:space="preserve">

<path fill="#151515" d="M14.083,18.208c0.415-0.788,1.031-2.267,1.848-4.437l1.772,0.43c-0.451,0.938-1.114,2.273-1.987,4.007
	h4.254v1.311H1.214v-1.311h4.028c-0.638-1.912-1.146-3.247-1.525-4.007l1.644-0.43l1.654,4.437h2.632V12.45H2.063v-1.332h7.584
	v-3.18H5.36V6.703c-1.547,1.082-3.072,1.97-4.576,2.664L0,8.229c1.396-0.58,3.14-1.676,5.231-3.287
	C7.322,3.33,8.74,1.884,9.485,0.602h2.267c0.917,1.282,2.261,2.608,4.034,3.98s3.629,2.451,5.57,3.239l-0.913,1.3
	c-1.626-0.666-3.411-1.735-5.355-3.207s-3.4-2.855-4.367-4.152c-1.347,1.726-3.123,3.366-5.328,4.92h10.56v1.257h-4.641v3.18h7.917
	v1.332h-7.917v5.758H14.083z"/>
<path fill="#151515" d="M41.379,4.802H25.33v3.771c0,2.277-0.233,4.492-0.698,6.645c-0.466,2.151-0.981,3.646-1.547,4.484
	l-1.16-0.741c0.494-0.924,0.924-2.247,1.289-3.97c0.365-1.722,0.548-3.449,0.548-5.183V1.214h17.617V4.802z M39.896,3.771V2.288
	H25.33v1.482H39.896z M41.938,18.466c0,0.494-0.172,0.888-0.516,1.182s-0.784,0.44-1.321,0.44h-2.557l-0.204-1.257h2.148
	c0.616,0,0.924-0.247,0.924-0.741v-3.588h-5.833v2.041c1.045-0.1,1.844-0.189,2.396-0.269c-0.107-0.294-0.254-0.662-0.44-1.106
	l1.182-0.354c0.279,0.681,0.691,1.644,1.235,2.89l-1.278,0.365c-0.043-0.1-0.14-0.344-0.29-0.73
	c-1.74,0.266-4.372,0.537-7.896,0.816l-0.269-1.214c1.002-0.05,2.295-0.14,3.878-0.269v-2.17h-5.21v5.672H26.34V13.46h6.757v-1.343
	h-5.629V8.486h5.629v-1.3c-2.736,0.086-4.784,0.115-6.145,0.086l-0.14-1.074h0.494c2.521,0,5.115-0.068,7.783-0.204
	c2.667-0.136,4.456-0.308,5.366-0.516l0.612,1.139c-1.196,0.236-3.337,0.408-6.424,0.516v1.354h5.908v3.631h-5.908v1.343h7.294
	V18.466z M33.097,11.15V9.475h-4.179v1.676H33.097z M39.091,11.15V9.475h-4.447v1.676H39.091z"/>
<path fill="#151515" d="M52.701,10.946c0-0.544,0.193-1.01,0.58-1.396s0.852-0.58,1.396-0.58c0.544,0,1.01,0.193,1.396,0.58
	s0.58,0.853,0.58,1.396s-0.193,1.01-0.58,1.396s-0.853,0.58-1.396,0.58c-0.544,0-1.01-0.193-1.396-0.58S52.701,11.49,52.701,10.946
	z"/>
<path fill="#151515" d="M79.202,15.931c1.977,1.175,4.304,2.045,6.982,2.61l-0.816,1.439c-3.072-0.738-5.579-1.747-7.52-3.029
	c-2.091,1.426-4.559,2.471-7.401,3.137l-0.645-1.257c2.456-0.595,4.687-1.558,6.692-2.89c-1.117-0.931-2.068-1.957-2.852-3.078
	c-0.784-1.12-1.294-2.175-1.531-3.163h-2.02c-0.021,4.34-1.085,7.774-3.19,10.302l-1.074-0.784c0.902-1.239,1.564-2.7,1.987-4.383
	c0.422-1.683,0.634-3.354,0.634-5.017V3.244h7.724V0.526h1.729v2.718h8.282l0.462,0.419c-0.43,1.132-1.063,2.403-1.901,3.813
	l-1.439-0.29c0.236-0.444,0.619-1.325,1.149-2.643h-6.553V8.4h5.876l0.408,0.333C83.276,11.505,81.615,13.904,79.202,15.931z
	 M70.093,8.4h6.08V4.544h-6.08V8.4z M77.838,15.018c2.013-1.683,3.38-3.455,4.104-5.317h-8.218
	C74.468,11.748,75.84,13.521,77.838,15.018z"/>
<path fill="#151515" d="M88.58,16.607v-1.343h9.066v-1.837h-7.38V8.443h7.38V6.628h-4.104V3.663h-4.941v-1.3h4.941V0.677h1.654
	v1.687h6.735V0.677h1.665v1.687h4.727v1.3h-4.727v2.965h-4.243v1.815h7.627v4.984h-7.627v1.837h9.271v1.343h-9.271v3.556h-1.708
	v-3.556H88.58z M97.646,9.636h-5.726v2.557h5.726V9.636z M95.197,3.663v1.815h6.735V3.663H95.197z M105.349,9.636h-5.994v2.557
	h5.994V9.636z"/>
<path fill="#151515" d="M128.294,18.573c-2.142,0.329-4.552,0.494-7.229,0.494h-1.268c-3.395,0-5.691-0.344-6.891-1.031
	c-1.2-0.688-1.8-1.672-1.8-2.954c0-1.561,0.733-2.982,2.202-4.265l1.171,0.87c-1.16,1.139-1.74,2.23-1.74,3.276
	c0,0.909,0.521,1.565,1.563,1.966c1.041,0.401,3.166,0.602,6.375,0.602c2.492,0,4.941-0.179,7.348-0.537L128.294,18.573z
	 M126.769,4.92c-1.912,0.745-3.749,1.629-5.511,2.653l-0.773-1.074c0.723-0.387,1.815-0.952,3.276-1.697l-0.043-0.215
	c-2.492,0.043-6.234,0.161-11.226,0.354l-0.086-1.504c3.309-0.136,7.154-0.204,11.537-0.204c1.031,0,1.758,0.011,2.181,0.032
	L126.769,4.92z M128.444,3.438l-1.225,0.548c-0.516-1.153-1.038-2.155-1.568-3.008l1.171-0.526
	C127.445,1.418,127.986,2.414,128.444,3.438z M131.441,2.997l-1.235,0.505c-0.473-1.11-0.985-2.102-1.536-2.976L129.787,0
	C130.367,0.896,130.918,1.895,131.441,2.997z"/>
<path fill="#151515" d="M153.205,11.688l-0.526,1.59c-0.96-0.372-1.852-0.701-2.675-0.988c-0.365,1.733-0.963,3.194-1.794,4.383
	c-0.831,1.189-1.98,2.234-3.448,3.137l-0.988-1.117c2.549-1.726,4.096-4.039,4.641-6.939c-2.264-0.709-4.372-1.171-6.327-1.386
	c-2.005,5.356-4.239,8.035-6.703,8.035c-0.788,0-1.443-0.296-1.966-0.886c-0.523-0.592-0.784-1.306-0.784-2.144
	c0-0.917,0.263-1.874,0.79-2.874c0.525-0.998,1.361-1.865,2.508-2.6c1.146-0.733,2.445-1.104,3.899-1.111
	c0.329,0,0.669,0.007,1.021,0.021c0.537-1.647,0.895-3.283,1.074-4.909h-6.821V2.535h8.422l0.333,0.354
	c-0.272,2.22-0.698,4.243-1.278,6.069c1.884,0.223,3.899,0.652,6.048,1.289c0.043-0.522,0.064-1.808,0.064-3.856h1.676l0.011,1.869
	c0,0.995-0.04,1.826-0.118,2.492C150.92,10.953,151.901,11.266,153.205,11.688z M140.368,10.237
	c-0.329-0.015-0.595-0.021-0.795-0.021c-1.117,0-2.097,0.303-2.938,0.907c-0.841,0.605-1.457,1.331-1.848,2.176
	c-0.39,0.846-0.585,1.551-0.585,2.116c0,0.394,0.132,0.734,0.397,1.021c0.265,0.287,0.587,0.43,0.967,0.43
	c0.752,0,1.604-0.7,2.557-2.1C139.075,13.365,139.824,11.855,140.368,10.237z"/>
</svg>
