<?xml version="1.0" encoding="utf-8"?>
<!-- Generator: Adobe Illustrator 12.0.0, SVG Export Plug-In . SVG Version: 6.00 Build 51448)  -->
<!DOCTYPE svg PUBLIC "-//W3C//DTD SVG 1.1//EN" "http://www.w3.org/Graphics/SVG/1.1/DTD/svg11.dtd" [
	<!ENTITY ns_svg "http://www.w3.org/2000/svg">
	<!ENTITY ns_xlink "http://www.w3.org/1999/xlink">
]>
<svg  version="1.1" id="レイヤー_1" xmlns="&ns_svg;" xmlns:xlink="&ns_xlink;" width="135.574" height="20.766"
	 viewBox="0 0 135.574 20.766" overflow="visible" enable-background="new 0 0 135.574 20.766" xml:space="preserve">

<path fill="#F7F9F9" d="M14.15,11.927H6.334c-0.359,2.119-0.539,3.522-0.539,4.212c0,1.932,1.756,2.896,5.267,2.896
	c4.297,0,6.446-1.111,6.446-3.335c0-1.64-0.431-3.234-1.292-4.784l1.426-0.482c1.063,1.849,1.595,3.672,1.595,5.469
	c0,3.115-2.725,4.672-8.176,4.672c-4.657,0-6.985-1.509-6.985-4.525c0-0.861,0.146-2.235,0.438-4.122H0v-1.493h4.773
	c0.165-0.959,0.438-2.317,0.82-4.077H0.146V4.84H5.93c0.157-0.719,0.419-1.8,0.786-3.246l1.797,0.112L7.771,4.84h10.152v1.516
	h-10.5c-0.314,1.408-0.591,2.767-0.831,4.077h7.558V11.927z"/>
<path fill="#F7F9F9" d="M39.104,7.996c-2.119,1.542-4.122,3.059-6.008,4.549c0.382-0.098,0.726-0.146,1.033-0.146
	c1.108,0,1.685,0.816,1.729,2.448c0,0.419,0.034,0.968,0.101,1.646s0.129,1.088,0.186,1.229c0.056,0.143,0.163,0.296,0.32,0.46
	c0.157,0.165,0.569,0.271,1.235,0.32s1.385,0.073,2.156,0.073c1.078,0,2.123-0.034,3.133-0.101l-0.022,1.617
	c-0.846,0.052-1.831,0.078-2.954,0.078c-1.647,0-2.791-0.063-3.431-0.191c-0.64-0.127-1.138-0.352-1.493-0.674
	c-0.356-0.321-0.579-0.746-0.668-1.274c-0.09-0.527-0.176-1.573-0.258-3.139c-0.03-0.479-0.127-0.833-0.292-1.062
	c-0.165-0.229-0.416-0.342-0.752-0.342c-0.704,0-1.381,0.254-2.033,0.764c-0.651,0.509-3.261,2.624-7.828,6.345l-1.202-1.202
	c1.595-1.213,3.949-3.088,7.064-5.626c0.801-0.696,1.98-1.628,3.538-2.796c1.654-1.251,2.837-2.175,3.549-2.774L24.033,8.243V6.772
	h14.173L39.104,7.996z M38.442,2.886l-0.258,1.561c-3.526-0.509-7.757-0.793-12.69-0.854V2.123
	C30.322,2.123,34.639,2.377,38.442,2.886z"/>
<path fill="#F7F9F9" d="M51.66,1.786c-0.053,1.175-0.146,2.272-0.281,3.291h4.998V6.57h-5.222
	c-0.771,4.493-2.358,8.311-4.762,11.456l-1.314-0.967c2.126-2.875,3.56-6.371,4.301-10.489h-3.672V5.076h3.908
	c0.149-1.093,0.239-2.197,0.27-3.313L51.66,1.786z M66.035,17.767l-0.898,1.427c-1.572-1.273-2.965-2.205-4.178-2.797v1.066
	c0,2.201-1.617,3.303-4.852,3.303c-1.333,0-2.469-0.285-3.408-0.854c-0.94-0.569-1.41-1.355-1.41-2.359
	c0-1.1,0.477-1.969,1.432-2.605c0.954-0.636,2.12-0.954,3.498-0.954c1.07,0,2.059,0.09,2.965,0.27V8.176h1.774v6.615
	C62.449,15.359,64.141,16.352,66.035,17.767z M59.229,15.745c-0.996-0.262-1.999-0.394-3.01-0.394
	c-0.876,0-1.644,0.182-2.302,0.545s-0.988,0.863-0.988,1.5c0,1.272,1.134,1.908,3.403,1.908c1.932,0,2.897-0.629,2.897-1.887
	V15.745z M66.08,8.041l-1.381,1.101c-1.385-1.752-3.302-3.553-5.75-5.402l1.011-1.112C62.063,3.856,64.104,5.66,66.08,8.041z"/>
<path fill="#F7F9F9" d="M78.366,13.724c-0.255,0.712-0.657,1.58-1.207,2.605c-0.551,1.026-1.112,1.881-1.685,2.566
	c-0.573,0.685-1.166,1.027-1.78,1.027c-0.374,0-0.708-0.09-0.999-0.27c-0.293-0.18-0.674-0.528-1.146-1.044
	c-0.471-0.518-0.903-1.227-1.297-2.129c-0.393-0.902-0.684-1.848-0.87-2.836c-0.188-0.988-0.28-1.949-0.28-2.886
	c0-0.838,0.086-2.025,0.258-3.56c0.18-1.61,0.277-2.785,0.292-3.526h1.887c-0.03,0.674-0.149,1.849-0.359,3.526
	c-0.188,1.498-0.28,2.68-0.28,3.549c0,1.303,0.136,2.473,0.409,3.509c0.273,1.037,0.67,1.931,1.19,2.679
	c0.521,0.749,0.9,1.123,1.141,1.123c0.389,0,0.913-0.533,1.572-1.601c0.658-1.066,1.25-2.218,1.773-3.453L78.366,13.724z
	 M88.643,17.025l-1.887,0.057v-0.203c0-2.216-0.359-4.372-1.078-6.469c-0.719-2.096-1.745-3.968-3.078-5.615l1.382-0.876
	C87.036,7.416,88.59,11.785,88.643,17.025z"/>
<path fill="#F7F9F9" d="M109.53,19.418c-2.238,0.344-4.758,0.516-7.558,0.516h-1.325c-3.549,0-5.95-0.359-7.204-1.078
	s-1.881-1.748-1.881-3.088c0-1.632,0.767-3.118,2.302-4.459l1.224,0.91c-1.213,1.19-1.818,2.332-1.818,3.426
	c0,0.95,0.544,1.636,1.634,2.055c1.089,0.42,3.311,0.629,6.665,0.629c2.605,0,5.166-0.188,7.682-0.562L109.53,19.418z
	 M107.937,5.144c-2,0.779-3.92,1.703-5.762,2.774l-0.809-1.123c0.756-0.404,1.898-0.996,3.426-1.774l-0.045-0.225
	c-2.605,0.045-6.519,0.168-11.736,0.371l-0.09-1.572C96.38,3.452,100.4,3.38,104.982,3.38c1.078,0,1.838,0.011,2.28,0.034
	L107.937,5.144z M109.688,3.594l-1.281,0.573c-0.539-1.206-1.085-2.253-1.639-3.145l1.224-0.55
	C108.644,1.482,109.209,2.523,109.688,3.594z M112.821,3.133l-1.291,0.528c-0.494-1.16-1.03-2.197-1.606-3.111L111.092,0
	C111.698,0.936,112.274,1.98,112.821,3.133z"/>
<path fill="#F7F9F9" d="M135.574,12.219l-0.55,1.662c-1.004-0.389-1.936-0.733-2.797-1.033c-0.382,1.813-1.007,3.34-1.875,4.582
	c-0.869,1.243-2.07,2.336-3.605,3.279l-1.033-1.168c2.665-1.805,4.282-4.223,4.852-7.255c-2.366-0.741-4.57-1.224-6.615-1.448
	c-2.096,5.6-4.432,8.4-7.008,8.4c-0.823,0-1.508-0.31-2.055-0.927c-0.547-0.618-0.82-1.364-0.82-2.241
	c0-0.958,0.275-1.959,0.826-3.004c0.55-1.044,1.424-1.95,2.622-2.718c1.198-0.767,2.557-1.154,4.077-1.162
	c0.344,0,0.699,0.008,1.066,0.022c0.562-1.722,0.936-3.433,1.123-5.132h-7.131V2.65h8.805l0.348,0.371
	c-0.285,2.321-0.73,4.436-1.336,6.345c1.969,0.232,4.076,0.682,6.322,1.348c0.045-0.546,0.067-1.891,0.067-4.032h1.752l0.011,1.954
	c0,1.041-0.041,1.909-0.123,2.606C133.186,11.451,134.212,11.777,135.574,12.219z M122.153,10.703
	c-0.344-0.016-0.621-0.023-0.83-0.023c-1.168,0-2.192,0.316-3.072,0.949s-1.523,1.391-1.932,2.274s-0.611,1.621-0.611,2.212
	c0,0.412,0.138,0.768,0.415,1.067c0.276,0.3,0.614,0.449,1.011,0.449c0.786,0,1.677-0.731,2.673-2.195
	C120.802,13.973,121.585,12.395,122.153,10.703z"/>
</svg>

