<?xml version="1.0" encoding="utf-8"?>
<!-- Generator: Adobe Illustrator 12.0.0, SVG Export Plug-In . SVG Version: 6.00 Build 51448)  -->
<!DOCTYPE svg PUBLIC "-//W3C//DTD SVG 1.1//EN" "http://www.w3.org/Graphics/SVG/1.1/DTD/svg11.dtd" [
	<!ENTITY ns_svg "http://www.w3.org/2000/svg">
	<!ENTITY ns_xlink "http://www.w3.org/1999/xlink">
]>
<svg  version="1.1" id="レイヤー_1" xmlns="&ns_svg;" xmlns:xlink="&ns_xlink;" width="86.98" height="20.75"
	 viewBox="0 0 86.98 20.75" overflow="visible" enable-background="new 0 0 86.98 20.75" xml:space="preserve">

<path fill="#151515" d="M73.89,10.49c-0.33-0.02-0.59-0.02-0.79-0.02c-1.12,0-2.1,0.3-2.939,0.9
	c-0.841,0.61-1.461,1.33-1.851,2.18c-0.39,0.84-0.58,1.55-0.58,2.12c0,0.39,0.13,0.73,0.391,1.021
	c0.27,0.279,0.59,0.43,0.97,0.43c0.75,0,1.6-0.7,2.56-2.101C72.6,13.62,73.35,12.11,73.89,10.49z M83.791,11
	c0.649,0.2,1.64,0.52,2.939,0.94l-0.53,1.59c-0.96-0.37-1.85-0.7-2.67-0.99c-0.369,1.729-0.97,3.19-1.8,4.38
	c-0.83,1.19-1.979,2.24-3.439,3.14L77.3,18.94c2.55-1.721,4.09-4.04,4.64-6.94c-2.27-0.71-4.37-1.17-6.33-1.38
	c-2,5.35-4.239,8.03-6.699,8.03c-0.79,0-1.45-0.29-1.971-0.881c-0.52-0.6-0.779-1.31-0.779-2.149c0-0.91,0.26-1.87,0.789-2.87
	c0.521-1,1.36-1.87,2.511-2.6c1.14-0.73,2.439-1.11,3.89-1.11c0.33,0,0.67,0,1.03,0.02c0.53-1.65,0.89-3.28,1.069-4.91H68.63
	V2.79h8.42l0.33,0.35c-0.271,2.22-0.7,4.24-1.28,6.07c1.89,0.22,3.9,0.65,6.05,1.29c0.05-0.52,0.07-1.81,0.07-3.86h1.67
	l0.01,1.87C83.9,9.51,83.86,10.34,83.791,11z"/>
<path fill="#151515" d="M63.31,0.25c0.58,0.9,1.13,1.89,1.66,3l-1.24,0.5c-0.47-1.11-0.99-2.1-1.54-2.97L63.31,0.25z"/>
<path fill="#151515" d="M61.97,3.69l-1.23,0.55c-0.51-1.16-1.029-2.16-1.56-3.01l1.17-0.53C60.97,1.67,61.51,2.66,61.97,3.69z"/>
<path fill="#151515" d="M59.65,3.52l0.641,1.65c-1.91,0.75-3.75,1.63-5.511,2.65l-0.77-1.07c0.72-0.39,1.81-0.95,3.27-1.7
	l-0.04-0.21C54.75,4.88,51.01,5,46.02,5.19l-0.09-1.5c3.31-0.14,7.15-0.21,11.54-0.21C58.5,3.48,59.22,3.49,59.65,3.52z"/>
<path fill="#151515" d="M53.32,19.32c-3.39,0-5.689-0.351-6.89-1.03c-1.2-0.69-1.8-1.68-1.8-2.96c0-1.561,0.729-2.98,2.2-4.26
	L48,11.94c-1.16,1.14-1.74,2.229-1.74,3.27c0,0.91,0.52,1.57,1.57,1.97c1.04,0.4,3.159,0.601,6.369,0.601
	c2.49,0,4.94-0.181,7.351-0.54l0.27,1.58c-2.14,0.33-4.55,0.5-7.229,0.5H53.32z"/>
<path fill="#151515" d="M42.77,18.4l-1.14,1.08c-0.58-0.471-1.26-1.171-2.05-2.101c-0.79-0.92-1.37-1.71-1.74-2.36l1.3-0.699
	c0.33,0.55,0.88,1.26,1.66,2.13C41.58,17.32,42.23,17.97,42.77,18.4z"/>
<path fill="#151515" d="M31.73,14.3l1.46,0.58c-0.39,0.7-1.03,1.53-1.9,2.5c-0.87,0.98-1.59,1.66-2.16,2.061l-0.99-0.9
	C29.59,17.3,30.78,15.88,31.73,14.3z"/>
<path fill="#151515" d="M39.33,8.31V6.18h-6.99v2.13H39.33z M39.33,11.79V9.46h-6.99v2.33H39.33z M40.93,4.99v7.99h-4.32v5.52
	c0,0.51-0.18,0.92-0.54,1.22c-0.35,0.3-0.77,0.46-1.27,0.46h-2.39l-0.19-1.46h1.82c0.23,0,0.43-0.069,0.61-0.2
	c0.18-0.14,0.27-0.31,0.27-0.51V12.98h-4.16V4.99h3.58l0.62-2.16h-5.94v5.5c0,2.5-0.28,4.8-0.84,6.91
	c-0.55,2.1-1.26,3.72-2.1,4.85l-1.1-0.8c1.63-2.79,2.44-6.33,2.44-10.64V1.6h14.63v1.23h-5.28l-0.92,2.16H40.93z"/>
<path fill="#151515" d="M26.35,4.14l-1.26,1.01c-0.75-1.03-1.57-2.05-2.45-3.05l1.24-0.93C24.94,2.36,25.77,3.34,26.35,4.14z"/>
<path fill="#151515" d="M24.51,11.6l1.39,0.62c-0.89,3.181-1.81,5.7-2.79,7.54l-1.4-0.93C22.54,17.47,23.47,15.06,24.51,11.6z"/>
<path fill="#151515" d="M22.74,6.2c1.06,1.21,1.88,2.2,2.44,2.97l-1.28,0.97c-1.06-1.42-1.86-2.45-2.4-3.07L22.74,6.2z"/>
<path fill="#151515" d="M20.18,19.2l-0.78,1.3c-3.11-0.61-5.39-1.26-6.82-1.96l0.98-1.05C15.49,18.25,17.7,18.82,20.18,19.2z"/>
<path fill="#151515" d="M12.68,3.58c0.2,0.72,0.88,1.44,2.05,2.16c1.17,0.72,3.06,1.31,5.66,1.75l-0.65,1.2
	c-2.2-0.41-3.88-0.91-5.03-1.48c-1.16-0.57-2.01-1.25-2.56-2.04c-0.54,0.89-1.52,1.63-2.94,2.21c-1.41,0.59-2.86,0.92-4.33,1
	L4.59,7.29c2.05-0.23,3.64-0.71,4.8-1.45c1.15-0.75,1.72-1.67,1.72-2.75V3H8.86C8.01,3.87,7.29,4.46,6.7,4.79L5.78,4.03
	c0.65-0.5,1.31-1.09,1.97-1.78c0.65-0.69,1.12-1.28,1.4-1.79l1.57,0.29c-0.33,0.47-0.61,0.85-0.85,1.14h9.11l0.35,0.55
	c-0.82,1.2-1.69,2.16-2.6,2.89l-1.08-0.56c0.42-0.4,0.91-0.99,1.48-1.77h-4.37C12.74,3.22,12.71,3.42,12.68,3.58z"/>
<path fill="#151515" d="M6.45,17.49l1.1,1.01c-0.79,0.39-1.87,0.79-3.25,1.19c-1.37,0.399-2.54,0.67-3.5,0.81l-0.55-1.19
	c0.91-0.149,2.01-0.399,3.31-0.779C4.85,18.16,5.81,17.81,6.45,17.49z"/>
<path fill="#151515" d="M5.34,2.39L4.43,3.42C3.79,3.03,2.81,2.57,1.51,2.03l0.88-0.96C3.21,1.34,4.19,1.78,5.34,2.39z"/>
<path fill="#151515" d="M4.23,4.44l1.11,0.64C4.31,6.18,2.99,7.22,1.36,8.2L0.39,7.26C1.8,6.45,3.08,5.51,4.23,4.44z"/>
<path fill="#151515" d="M2.37,8.92h15.91v8.37H2.37V8.92z M16.64,11.33V9.97H3.96v1.36H16.64z M16.64,13.68v-1.39H3.96v1.39
	H16.64z M16.64,16.15v-1.48H3.96v1.48H16.64z"/>
</svg>
