<?xml version="1.0" encoding="utf-8"?>
<!-- Generator: Adobe Illustrator 12.0.0, SVG Export Plug-In . SVG Version: 6.00 Build 51448)  -->
<!DOCTYPE svg PUBLIC "-//W3C//DTD SVG 1.1//EN" "http://www.w3.org/Graphics/SVG/1.1/DTD/svg11.dtd" [
	<!ENTITY ns_svg "http://www.w3.org/2000/svg">
	<!ENTITY ns_xlink "http://www.w3.org/1999/xlink">
]>
<svg  version="1.1" id="レイヤー_1" xmlns="&ns_svg;" xmlns:xlink="&ns_xlink;" width="113.08" height="21.2"
	 viewBox="0 0 113.08 21.2" overflow="visible" enable-background="new 0 0 113.08 21.2" xml:space="preserve">

<path fill="#151515" d="M99.41,10.95c-0.35-0.02-0.62-0.02-0.83-0.02c-1.17,0-2.2,0.31-3.08,0.939
	c-0.88,0.641-1.52,1.4-1.93,2.28s-0.61,1.62-0.61,2.21c0,0.41,0.141,0.771,0.42,1.07c0.271,0.3,0.61,0.45,1.011,0.45
	c0.779,0,1.67-0.73,2.67-2.2C98.061,14.22,98.84,12.64,99.41,10.95z M103.061,3.27c-0.29,2.32-0.73,4.43-1.341,6.34
	c1.971,0.23,4.08,0.68,6.32,1.35c0.05-0.55,0.07-1.89,0.07-4.03h1.75l0.01,1.95c0,1.04-0.04,1.91-0.12,2.61
	c0.69,0.21,1.72,0.53,3.08,0.971l-0.55,1.67c-1.01-0.391-1.94-0.74-2.8-1.04c-0.38,1.819-1.011,3.34-1.87,4.59
	c-0.87,1.24-2.07,2.33-3.61,3.27l-1.03-1.159c2.66-1.811,4.28-4.23,4.851-7.261c-2.37-0.739-4.57-1.22-6.62-1.45
	c-2.09,5.6-4.43,8.4-7,8.4c-0.83,0-1.51-0.31-2.06-0.92c-0.551-0.62-0.82-1.37-0.82-2.24c0-0.96,0.28-1.96,0.83-3.01
	c0.55-1.04,1.42-1.95,2.62-2.72c1.199-0.76,2.56-1.15,4.08-1.16c0.34,0,0.699,0.01,1.06,0.02c0.56-1.72,0.94-3.43,1.13-5.13
	h-7.13V2.9h8.8L103.061,3.27z"/>
<path fill="#151515" d="M90.07,3.38l-1.29,0.53c-0.49-1.16-1.03-2.2-1.6-3.11l1.17-0.55C88.95,1.18,89.53,2.23,90.07,3.38z"/>
<path fill="#151515" d="M86.94,3.84l-1.28,0.57c-0.54-1.2-1.08-2.25-1.64-3.14l1.229-0.55C85.9,1.73,86.46,2.77,86.94,3.84z"/>
<path fill="#151515" d="M84.521,3.66l0.67,1.73c-2,0.78-3.92,1.7-5.76,2.77L78.62,7.04c0.76-0.4,1.9-1,3.43-1.77L82,5.04
	c-2.6,0.05-6.52,0.17-11.74,0.37l-0.09-1.57c3.46-0.14,7.48-0.21,12.07-0.21C83.311,3.63,84.07,3.64,84.521,3.66z"/>
<path fill="#151515" d="M86.78,19.66c-2.23,0.351-4.75,0.521-7.55,0.521H77.9c-3.55,0-5.95-0.36-7.2-1.08
	c-1.26-0.72-1.88-1.75-1.88-3.09c0-1.63,0.76-3.12,2.3-4.46l1.22,0.91c-1.21,1.189-1.819,2.34-1.819,3.43
	c0,0.95,0.55,1.64,1.64,2.05c1.09,0.42,3.31,0.63,6.66,0.63c2.61,0,5.17-0.18,7.68-0.56L86.78,19.66z"/>
<path fill="#151515" d="M51.36,17.791c0,1.14,1.33,1.72,3.98,1.72c0.58,0,1.2-0.05,1.89-0.141c-0.44-2.149-1.61-3.22-3.51-3.22
	c-0.6,0-1.15,0.15-1.63,0.45S51.36,17.291,51.36,17.791z M57.41,10.44c-1.19,0-2.34,0.15-3.47,0.45
	c-1.13,0.3-2.42,0.91-3.88,1.83c-1.47,0.92-2.49,1.63-3.07,2.11l-0.83-1.381c4.56-2.939,9.02-6.04,13.37-9.28L48.16,4.21V2.72
	h13.72l0.78,1.14l-7.92,5.48l0.09,0.14c0.92-0.28,1.83-0.42,2.73-0.42c2.149,0,3.92,0.5,5.3,1.48c1.38,0.99,2.07,2.36,2.07,4.1
	c0,2.05-0.851,3.61-2.54,4.68c-1.69,1.07-3.96,1.61-6.8,1.61c-3.91,0-5.87-1.07-5.87-3.22c0-0.851,0.41-1.561,1.22-2.13
	c0.8-0.58,1.69-0.87,2.66-0.87c1.35,0,2.51,0.38,3.48,1.14c0.97,0.75,1.561,1.83,1.8,3.23c2.801-0.671,4.21-2.12,4.21-4.341
	c0-1.37-0.52-2.43-1.55-3.17C60.5,10.82,59.13,10.44,57.41,10.44z"/>
<path fill="#151515" d="M38.7,3.13l-0.26,1.56c-3.53-0.51-7.76-0.79-12.69-0.85V2.37C30.58,2.37,34.89,2.62,38.7,3.13z"/>
<path fill="#151515" d="M37.95,18.75c0.67,0.05,1.39,0.069,2.16,0.069c1.08,0,2.12-0.029,3.13-0.1l-0.02,1.62
	c-0.85,0.05-1.83,0.08-2.95,0.08c-1.65,0-2.79-0.07-3.43-0.2c-0.64-0.12-1.14-0.351-1.5-0.67c-0.35-0.32-0.58-0.75-0.67-1.271
	c-0.09-0.529-0.17-1.58-0.25-3.14c-0.03-0.48-0.13-0.84-0.3-1.06c-0.16-0.23-0.41-0.351-0.75-0.351c-0.7,0-1.38,0.26-2.03,0.771
	c-0.65,0.51-3.26,2.619-7.83,6.34l-1.2-1.2c1.6-1.21,3.95-3.09,7.06-5.63c0.81-0.69,1.98-1.62,3.54-2.79
	c1.66-1.25,2.84-2.18,3.55-2.78L24.29,8.49V7.02h14.17l0.9,1.22c-2.12,1.54-4.12,3.06-6.01,4.55c0.38-0.101,0.73-0.15,1.03-0.15
	c1.11,0,1.69,0.82,1.73,2.45c0,0.42,0.04,0.97,0.1,1.649c0.07,0.681,0.13,1.091,0.19,1.23c0.05,0.14,0.16,0.29,0.32,0.46
	C36.88,18.59,37.29,18.7,37.95,18.75z"/>
<path fill="#151515" d="M19.49,16.15c0,3.11-2.72,4.67-8.17,4.67c-4.66,0-6.99-1.51-6.99-4.529c0-0.86,0.15-2.23,0.44-4.12H0.25
	v-1.49h4.78C5.19,9.72,5.46,8.36,5.85,6.6H0.4V5.09h5.78c0.16-0.72,0.42-1.8,0.79-3.25l1.8,0.11L8.03,5.09h10.15V6.6H7.68
	c-0.32,1.41-0.59,2.77-0.83,4.08h7.55v1.49H6.59c-0.36,2.12-0.54,3.52-0.54,4.21c0,1.939,1.75,2.899,5.27,2.899
	c4.29,0,6.44-1.109,6.44-3.33c0-1.64-0.43-3.239-1.29-4.79l1.43-0.479C18.96,12.53,19.49,14.35,19.49,16.15z"/>
</svg>
